<?xml version="1.0" encoding="UTF-8" standalone="no"?>
<!-- Created with Inkscape (http://www.inkscape.org/) -->

<svg
   xmlns:dc="http://purl.org/dc/elements/1.1/"
   xmlns:cc="http://creativecommons.org/ns#"
   xmlns:rdf="http://www.w3.org/1999/02/22-rdf-syntax-ns#"
   xmlns:svg="http://www.w3.org/2000/svg"
   xmlns="http://www.w3.org/2000/svg"
   xmlns:sodipodi="http://sodipodi.sourceforge.net/DTD/sodipodi-0.dtd"
   xmlns:inkscape="http://www.inkscape.org/namespaces/inkscape"
   width="500"
   height="500"
   viewBox="0 0 132.29166 132.29167"
   version="1.1"
   id="svg8"
   inkscape:version="0.92.3 (2405546, 2018-03-11)"
   sodipodi:docname="HRnet_favicon.svg">
  <defs
     id="defs2" />
  <sodipodi:namedview
     id="base"
     pagecolor="#ffffff"
     bordercolor="#666666"
     borderopacity="1.0"
     inkscape:pageopacity="0.0"
     inkscape:pageshadow="2"
     inkscape:zoom="0.70710678"
     inkscape:cx="408.30612"
     inkscape:cy="303.60825"
     inkscape:document-units="px"
     inkscape:current-layer="layer1"
     showgrid="false"
     units="px"
     showborder="true"
     inkscape:showpageshadow="false"
     inkscape:window-width="960"
     inkscape:window-height="1001"
     inkscape:window-x="951"
     inkscape:window-y="-9"
     inkscape:window-maximized="0" />
  <metadata
     id="metadata5">
    <rdf:RDF>
      <cc:Work
         rdf:about="">
        <dc:format>image/svg+xml</dc:format>
        <dc:type
           rdf:resource="http://purl.org/dc/dcmitype/StillImage" />
        <dc:title />
      </cc:Work>
    </rdf:RDF>
  </metadata>
  <g
     inkscape:label="Calque 1"
     inkscape:groupmode="layer"
     id="layer1"
     transform="translate(0,-164.70832)"
     style="display:inline">
    <g
       id="g826"
       transform="translate(-39.073673,126.05051)"
       style="display:inline;fill:#24221c">
      <path
         style="display:inline;fill:#24221c;stroke-width:1"
         d="m 102.72414,160.4383 c -2.56402,-1.08157 -4.045823,-3.46159 -4.045823,-6.49824 0,-5.83773 6.452943,-8.74984 10.959773,-4.94596 4.59201,3.87577 2.13683,11.37945 -3.84288,11.74487 -1.13293,0.0692 -2.51492,-0.0661 -3.07107,-0.30067 z m -20.743912,-4.33438 c -1.338897,-2.95055 -1.174847,-5.06401 0.686731,-8.84725 1.157823,-2.35301 2.419509,-4.07599 4.664831,-6.37035 3.239228,-3.30996 4.576357,-3.90409 5.023111,-2.23191 0.544968,2.03977 0.239779,7.81297 -0.57267,10.83319 -1.235604,4.59326 -2.219105,6.11281 -4.807604,7.42793 -3.211706,1.63175 -3.939311,1.51351 -4.994399,-0.81161 z m 41.418272,0.82289 c -1.9535,-0.96109 -2.30194,-1.33683 -3.31212,-3.57157 -1.62704,-3.59937 -2.55606,-8.62247 -2.23519,-12.08548 0.14365,-1.55035 0.35956,-2.97847 0.47979,-3.17361 0.59898,-0.97214 2.09794,-0.15571 4.83254,2.63214 2.18949,2.23213 3.37432,3.88658 4.68856,6.54697 2.03592,4.12126 2.16487,5.67333 0.71503,8.60609 -1.17924,2.38539 -2.07628,2.56684 -5.16861,1.04546 z m -30.210975,-5.52109 c -0.11335,-0.29629 0.02152,-1.07239 0.299687,-1.72466 0.324717,-0.76139 0.515614,-3.36501 0.533253,-7.27298 0.01513,-3.34787 0.164361,-6.30649 0.331663,-6.5747 0.428532,-0.68702 5.704522,-2.32923 6.499772,-2.02313 0.90327,0.34768 0.85409,2.62777 -0.14084,6.52986 -0.942655,3.69703 -2.760918,7.28458 -4.964986,9.79622 -1.660171,1.89184 -2.215096,2.16716 -2.558549,1.26939 z m 22.811085,0.11461 c -1.35137,-0.79066 -4.75111,-6.49812 -5.7386,-9.6339 -1.26577,-4.0195 -1.51965,-7.32265 -0.60815,-7.91239 0.75129,-0.4861 6.0806,1.03889 6.8406,1.95744 0.31447,0.38008 0.31479,1.4343 0.001,3.73212 -0.30515,2.23549 -0.31144,4.05223 -0.0208,6.01697 0.22895,1.548 0.53083,3.59065 0.67083,4.53922 0.2605,1.76499 0.0526,2.00119 -1.14497,1.30054 z m -46.916958,-5.2478 c -3.550167,-1.07265 -5.396358,-3.66304 -5.106808,-7.16535 0.193815,-2.34431 0.985148,-3.76267 2.898904,-5.19588 0.854125,-0.63965 1.72249,-0.83668 3.687532,-0.83668 2.883928,0 4.155619,0.67544 5.800445,3.08084 1.257062,1.83832 1.120411,5.60946 -0.271633,7.49618 -1.619159,2.19455 -4.658145,3.33101 -7.00844,2.62089 z m 69.293388,-0.0262 c -1.96131,-0.44143 -3.356,-1.59669 -4.39872,-3.64361 -1.15833,-2.27385 -1.1504,-3.87129 0.0303,-6.11637 2.5502,-4.84896 9.59458,-4.75476 11.9665,0.16001 1.00906,2.09082 1.06491,3.44093 0.22571,5.45558 -1.38378,3.32202 -4.39368,4.91641 -7.82384,4.14439 z m -58.17702,-2.92517 c 0.398886,-4.72693 2.479352,-9.87716 5.32762,-13.18859 2.101257,-2.44295 2.703896,-2.28359 4.426617,1.17048 0.794171,1.59233 1.44395,3.13385 1.44395,3.42561 0,0.29175 -1.069706,1.3561 -2.377124,2.36523 -2.516317,1.9422 -4.896406,4.5981 -6.671554,7.44468 -0.591534,0.94856 -1.373025,1.72466 -1.736646,1.72466 -0.573834,0 -0.628349,-0.38847 -0.412863,-2.94207 z m 48.0343,1.26958 c -1.16652,-2.08189 -5.71061,-6.95413 -7.54827,-8.09335 -1.73118,-1.07322 -1.73925,-1.86312 -0.0536,-5.24886 1.74629,-3.50756 2.51294,-3.62652 4.69435,-0.7284 2.96431,3.93825 5.28461,10.2449 5.30687,14.42424 0.0103,1.93576 -1.21801,1.75472 -2.39934,-0.35363 z M 91.582803,131.14706 c -0.805507,-1.61814 -1.632148,-3.11555 -1.836981,-3.32758 -1.135824,-1.17574 0.785213,-3.01261 5.29144,-5.05961 2.833513,-1.28716 3.557165,-1.13822 4.464302,0.91881 1.121116,2.54224 2.135996,7.19864 1.670696,7.66537 -0.38168,0.38285 -7.056189,2.74508 -7.756263,2.74508 -0.202754,0 -1.027692,-1.32393 -1.833194,-2.94207 z m 21.476647,1.72938 c -1.76951,-0.60411 -3.40544,-1.39758 -3.6354,-1.76326 -0.29907,-0.47558 -0.22417,-1.40661 0.26308,-3.27004 1.02347,-3.91419 1.97274,-5.70108 3.11478,-5.86321 1.14683,-0.16282 6.45236,2.43384 7.7045,3.77078 l 0.86142,0.91975 -1.94482,3.6035 c -1.06964,1.98194 -2.21514,3.62542 -2.54554,3.65219 -0.3304,0.0268 -2.04851,-0.4456 -3.81802,-1.04971 z m -9.69978,-1.85982 c -0.34966,-0.35072 -0.63574,-1.08754 -0.63574,-1.63737 0,-0.54983 -0.4771,-2.44768 -1.06023,-4.21745 -0.58313,-1.76978 -0.95295,-3.49821 -0.82182,-3.84096 0.19213,-0.50224 1.00646,-0.62199 4.19558,-0.61699 2.17645,0.003 4.22063,0.17341 4.54264,0.37775 0.49845,0.31632 0.42675,0.84307 -0.48246,3.54456 -0.58735,1.74517 -1.19042,3.81217 -1.34015,4.59334 -0.14974,0.78117 -0.45557,1.64857 -0.67964,1.92756 -0.57411,0.71486 -2.95888,0.6312 -3.71818,-0.13044 z m -39.473658,-1.53654 c 0,-0.30307 1.064719,-1.21023 2.366042,-2.01591 2.257144,-1.39746 7.748,-6.76321 7.748,-7.57146 0,-0.21116 0.371095,-0.58313 0.824656,-0.82662 0.658313,-0.3534 1.288535,-0.22967 3.124379,0.61338 2.70378,1.24163 3.737637,2.09247 3.737637,3.07598 0,1.48014 -5.657564,5.02632 -10.257797,6.42962 -3.233111,0.98627 -7.542917,1.15482 -7.542917,0.29501 z m 75.450748,-0.19902 c -4.96226,-1.45049 -11.1677,-5.61272 -10.59599,-7.10715 0.14703,-0.38434 1.66974,-1.36684 3.3838,-2.18334 l 3.11647,-1.48454 1.44102,1.80596 c 2.30589,2.88987 5.02464,5.46578 7.54058,7.14442 1.28613,0.8581 2.35142,1.7428 2.36732,1.96599 0.0497,0.69813 -4.69781,0.60561 -7.2532,-0.14134 z m -84.750412,-0.9666 c -1.28654,-0.53555 -2.276157,-1.21741 -2.353798,-1.6218 -0.07368,-0.38377 0.363972,-1.81071 0.972561,-3.17099 0.940379,-2.10187 1.384922,-2.613 2.960641,-3.40412 3.923174,-1.9697 6.06021,-2.4433 11.071476,-2.45362 6.709901,-0.0138 6.918265,0.58699 1.90291,5.48686 -3.094485,3.02323 -7.794276,5.65622 -10.566463,5.91972 -1.226643,0.1166 -2.446756,-0.11475 -3.987327,-0.75605 z m 92.989632,-0.78503 c -2.5545,-1.2756 -4.15337,-2.45772 -6.51983,-4.82044 -1.72445,-1.72171 -3.13535,-3.43095 -3.13535,-3.79832 0,-2.42774 11.30306,-1.68565 16.33011,1.07215 1.29597,0.71095 1.96985,1.50483 2.99098,3.52358 1.56057,3.08522 1.35003,3.75996 -1.53997,4.93531 -2.82015,1.14695 -4.34499,0.97577 -8.12594,-0.91228 z m -61.259765,-4.01522 -1.185754,-1.24146 0.923225,-1.49771 c 0.507774,-0.82374 1.573673,-2.82164 2.368665,-4.43978 1.094553,-2.22787 1.647322,-2.94207 2.277075,-2.94207 1.136936,0 5.956083,4.87453 5.956083,6.02453 0,0.68121 -0.508482,1.10992 -2.213588,1.86631 -1.217472,0.54007 -3.025288,1.54213 -4.017366,2.2268 -0.992083,0.68466 -2.055513,1.24484 -2.363183,1.24484 -0.307673,0 -1.092992,-0.55866 -1.745157,-1.24146 z m 34.159455,0.25281 c -0.79776,-0.54376 -2.61375,-1.59377 -4.03553,-2.33337 -1.42178,-0.73959 -2.63924,-1.63321 -2.70545,-1.98581 -0.17863,-0.95112 5.11985,-6.12137 6.12016,-5.97205 0.5353,0.0799 1.29907,1.0743 2.27422,2.96092 0.80753,1.56234 1.87493,3.50458 2.372,4.31608 l 0.90376,1.47545 -1.06009,1.26372 c -1.27724,1.52257 -1.96688,1.57159 -3.86907,0.27506 z m -40.609471,-4.70407 c -1.557563,-0.8442 -3.042919,-1.72648 -3.300792,-1.96061 -0.351541,-0.31916 -0.16663,-1.36839 0.738984,-4.19315 0.664315,-2.0721 1.389944,-3.88035 1.612508,-4.01833 1.120009,-0.69431 8.604962,1.68363 9.279625,2.94812 0.320272,0.60026 0.09999,1.41875 -0.998199,3.70899 -1.70293,3.55139 -2.913269,5.16656 -3.821575,5.09979 -0.37324,-0.0274 -1.952989,-0.7406 -3.510551,-1.58481 z m 45.169531,-0.42167 c -1.74314,-2.67083 -3.05488,-5.86241 -2.74374,-6.67573 0.45054,-1.17767 7.37749,-3.54491 9.19694,-3.143 0.41817,0.0924 0.97146,1.252 1.5602,3.26994 1.28807,4.41504 1.26949,4.98884 -0.18536,5.72407 -0.66752,0.33734 -2.09053,1.12359 -3.16223,1.74722 -1.0717,0.62362 -2.25796,1.13386 -2.63613,1.13386 -0.38005,0 -1.28787,-0.91975 -2.02968,-2.05636 z M 97.378764,117.1369 c -0.905361,-1.17724 -2.576298,-2.90044 -3.713193,-3.82932 -1.136895,-0.92889 -2.219227,-1.81659 -2.40518,-1.97267 -0.185957,-0.15608 -0.3381,-3.01034 -0.3381,-6.34279 v -6.05903 l 4.181436,-4.201166 4.181432,-4.201165 6.207961,-0.03457 6.20796,-0.03458 1.4383,1.965363 c 0.79106,1.080949 2.5488,2.892387 3.90608,4.025417 l 2.46778,2.060057 0.0162,6.121534 0.0162,6.12152 -3.30331,3.24642 c -1.81683,1.78553 -3.58458,3.67712 -3.92836,4.20352 -0.60972,0.93366 -0.78015,0.95851 -6.95704,1.01451 l -6.331997,0.0574 -1.646109,-2.14044 z m -38.964173,-0.51325 c -0.431704,-0.70066 3.048056,-3.56663 6.366766,-5.24375 3.257391,-1.64612 8.306342,-3.01336 10.288172,-2.786 0.844302,0.0969 1.19081,0.38136 1.286262,1.0561 0.1793,1.26746 -1.469629,6.09447 -2.227164,6.5197 -0.338759,0.19017 -1.371022,0.19903 -2.293917,0.0197 -2.621511,-0.50939 -6.670649,-0.40396 -9.769074,0.25435 -3.371791,0.71639 -3.321993,0.71394 -3.651045,0.17989 z m 90.024809,-0.20383 c -2.56901,-0.59293 -7.13531,-0.7029 -9.56695,-0.23042 -0.93618,0.18191 -1.96628,0.16422 -2.3301,-0.04 -1.12391,-0.6309 -2.87313,-5.80367 -2.3898,-7.06709 0.50753,-1.32665 7.68594,0.0833 11.90329,2.33805 4.14791,2.21759 7.51342,5.74289 5.31663,5.56905 -0.38939,-0.0308 -1.70927,-0.28713 -2.93307,-0.56958 z m -94.901509,-5.41937 c -3.070418,-1.3988 -4.751971,-4.76381 -3.864797,-7.73399 0.940648,-3.14923 3.635334,-5.293722 6.651902,-5.293722 2.17954,0 4.749966,1.605773 5.820293,3.636002 1.978697,3.75323 0.632706,7.56609 -3.316298,9.39426 -2.039926,0.94437 -3.213791,0.94381 -5.2911,-0.002 z m 98.862719,0.38619 c -3.00312,-0.95671 -4.77033,-3.43812 -4.77033,-6.6982 0,-2.34956 0.7837,-3.91061 2.69887,-5.375868 1.25584,-0.960811 1.87182,-1.136933 3.97639,-1.136933 2.12106,0 2.71703,0.17342 4.0189,1.16945 3.62877,2.776281 3.55627,8.582601 -0.13765,11.023031 -1.65115,1.09086 -4.16828,1.53394 -5.78618,1.01852 z m -30.73968,-2.09905 c -0.77007,-0.47679 -0.97528,-7.61461 -0.24706,-8.59327 0.51547,-0.69273 0.72609,-0.66918 4.37747,0.48944 2.10976,0.66944 4.34632,1.32242 4.97012,1.45106 1.07178,0.22103 1.12742,0.33878 1.0114,2.14057 -0.10562,1.64032 -0.26406,1.94552 -1.13418,2.18471 -0.55627,0.1529 -2.6847,0.81291 -4.72986,1.46667 -2.17877,0.69646 -3.93767,1.0529 -4.24789,0.86082 z m -35.119464,-0.32388 c -0.534818,-0.3226 -3.097939,-1.03425 -6.59482,-1.83102 -1.081847,-0.24649 -1.127716,-0.35246 -1.011406,-2.3365 l 0.121835,-2.07829 3.034213,-0.72171 c 1.668817,-0.39693 3.732818,-1.01718 4.586669,-1.37833 1.142475,-0.48322 1.693451,-0.53926 2.086353,-0.21218 0.705977,0.58771 1.121356,4.60585 0.713348,6.90048 -0.27437,1.54307 -0.480049,1.84141 -1.327023,1.92486 -0.55128,0.0543 -1.275405,-0.066 -1.609169,-0.26731 z m -14.255383,-8.16367 c -4.71373,-0.79615 -10.133951,-3.430678 -12.815925,-6.229256 -1.160795,-1.211264 -1.274714,-1.482872 -0.712686,-1.699205 0.367927,-0.141617 1.626851,-0.01307 2.797609,0.28564 1.862987,0.475341 7.321601,0.594915 11.433569,0.250458 1.074333,-0.09 1.315661,0.108 2.101836,1.724442 1.193885,2.454729 1.625623,5.248651 0.88388,5.719891 -0.635604,0.40381 -1.022061,0.39836 -3.688283,-0.052 z m 62.024277,-0.15258 c -0.42768,-0.5169 -0.36834,-1.126687 0.33594,-3.452508 0.97813,-3.230145 1.77509,-4.251761 3.06373,-3.927342 2.13488,0.537465 6.67627,0.686999 8.90884,0.293342 1.33505,-0.235398 3.11007,-0.549915 3.94448,-0.698922 5.12603,-0.915393 -3.25581,5.571054 -9.40606,7.27906 -3.75938,1.04403 -6.2497,1.22821 -6.84693,0.50637 z M 78.546485,100.3061 c -0.22406,-0.27899 -0.542053,-1.14639 -0.706652,-1.92756 -0.164598,-0.78117 -0.62559,-2.255889 -1.024427,-3.277152 -0.398837,-1.021268 -0.590396,-2.075568 -0.425687,-2.34289 0.362668,-0.588609 6.368469,-3.713419 7.137087,-3.713419 1.233165,0 5.317879,7.316699 4.816449,8.627409 -0.408656,1.068211 -5.946462,3.101192 -8.528662,3.130942 -0.473398,0.005 -1.044048,-0.21834 -1.268108,-0.49733 z m 47.482365,-0.616241 c -1.75662,-0.609629 -3.38192,-1.408517 -3.61177,-1.775305 -0.78198,-1.247848 3.09677,-8.86198 4.52158,-8.876049 1.02307,-0.01011 7.33086,3.390116 7.33629,3.954628 0.005,0.511279 -1.40567,5.270236 -2.04733,6.907167 -0.48843,1.24603 -2.16611,1.18908 -6.19877,-0.210441 z M 89.128784,94.468701 c -0.393853,-1.034456 -1.410201,-2.958034 -2.25855,-4.27462 -0.84835,-1.316586 -1.542453,-2.545617 -1.542453,-2.731178 0,-0.769329 1.738649,-2.475851 2.522455,-2.475851 0.465015,0 1.680658,0.532482 2.701428,1.183296 1.02077,0.650815 2.766211,1.609523 3.878755,2.130464 1.112545,0.520942 2.14762,1.121521 2.300164,1.334616 0.439908,0.61452 -0.903944,2.573694 -3.243031,4.727951 -2.739097,2.522664 -3.432026,2.539407 -4.358768,0.105322 z m 27.280496,-0.889828 c -1.51921,-1.523858 -2.76219,-3.078354 -2.76219,-3.45444 0,-0.439667 0.80421,-1.040535 2.2526,-1.683046 1.23893,-0.549595 3.06858,-1.551652 4.0659,-2.226798 0.99731,-0.675146 2.1521,-1.227537 2.56618,-1.227537 0.93818,0 2.95407,2.33477 2.5699,2.976429 -0.15571,0.260091 -0.85885,1.38595 -1.56251,2.501907 -0.70367,1.115958 -1.65956,2.896417 -2.12421,3.956576 -0.5388,1.229359 -1.09813,1.927563 -1.54415,1.927563 -0.38464,0 -1.94233,-1.246792 -3.46152,-2.770654 z M 62.470046,91.71591 c -3.602857,-0.835268 -6.836386,-2.155312 -7.79507,-3.182232 -0.909777,-0.974535 -2.521252,-4.444407 -2.521252,-5.428832 0,-0.822745 4.327602,-2.758151 6.083538,-2.720703 2.328301,0.04965 7.37211,2.793078 10.534418,5.729872 3.342201,3.103859 4.303403,4.620355 3.403403,5.369581 -0.888615,0.739746 -6.895993,0.88355 -9.705037,0.232314 z m 77.073584,0.244634 c -0.79021,-0.155508 -1.46386,-0.553316 -1.53064,-0.903881 -0.34337,-1.802665 5.6708,-7.241508 10.42641,-9.428999 3.20056,-1.472196 4.81432,-1.539815 7.58553,-0.317845 2.5165,1.109659 2.67991,1.853743 1.13704,5.177697 -1.07853,2.323593 -2.78439,3.465157 -7.10432,4.75423 -2.48863,0.742606 -8.35505,1.143669 -10.51402,0.718798 z M 73.361425,88.740727 c -2.132116,-2.659675 -4.402204,-4.770454 -7.172576,-6.669221 -1.292293,-0.885717 -2.279563,-1.824683 -2.193934,-2.086592 0.262335,-0.802386 2.584675,-0.77196 5.934548,0.07775 3.979156,1.00933 7.115332,2.480178 9.760925,4.577812 2.711272,2.149712 2.602768,2.9545 -0.633313,4.697544 -3.280611,1.767031 -3.848001,1.707528 -5.69565,-0.597293 z m 58.019445,0.567349 c -3.5202,-1.868421 -3.5391,-2.508522 -0.1458,-4.937361 3.38825,-2.425219 7.24761,-4.03967 11.24372,-4.70348 2.78675,-0.462918 3.21502,-0.448728 3.78749,0.125496 0.59089,0.592708 0.45255,0.771206 -1.63665,2.111755 -2.89367,1.856734 -5.52131,4.282874 -7.36055,6.796099 -1.75133,2.393116 -2.39824,2.459858 -5.88821,0.607491 z m -30.01219,-0.550537 c -0.85871,-0.221893 -0.81566,-0.643384 0.55087,-5.393697 0.48155,-1.673936 1.00045,-3.500048 1.15312,-4.058027 0.24834,-0.907625 0.4881,-1.014507 2.27579,-1.014507 h 1.9982 l 0.64666,2.840619 c 0.35567,1.56234 0.98768,3.731445 1.40447,4.820229 0.7409,1.935432 0.74087,1.992033 -0.001,2.536267 -0.73823,0.541463 -6.25795,0.726497 -8.02797,0.269116 z m -7.342822,-2.353947 c -1.557563,-0.790922 -3.278807,-1.885599 -3.82499,-2.432617 l -0.993061,-0.994578 1.759014,-3.357051 c 0.967457,-1.846378 1.912561,-3.528108 2.100233,-3.737178 0.208795,-0.232602 1.403113,-0.04493 3.077384,0.483566 1.504888,0.475031 3.129337,0.972729 3.609887,1.105996 1.651905,0.458111 1.836145,1.118122 1.151445,4.125048 -0.76378,3.354255 -2.15869,5.988203 -3.249793,6.136422 -0.439002,0.05963 -2.072557,-0.538691 -3.630119,-1.329608 z M 111.0225,85.697207 c -1.19627,-2.65046 -2.13609,-7.071874 -1.6031,-7.541908 0.55084,-0.485779 7.34676,-2.611362 7.80506,-2.441215 0.21097,0.07832 1.22748,1.765318 2.2589,3.748875 1.78591,3.434526 1.84231,3.643052 1.18295,4.37387 -0.87591,0.970838 -6.85226,3.990842 -7.89757,3.990842 -0.55476,0 -1.06639,-0.62421 -1.74624,-2.130464 z m -25.407824,-6.08704 c -3.16474,-3.939384 -5.014987,-8.428722 -5.411789,-13.130853 -0.311654,-3.693119 0.224815,-4.102674 1.962638,-1.498325 0.714861,1.071314 3.103546,3.729382 5.308185,5.906818 l 4.008438,3.958973 -0.676278,1.722264 c -0.941601,2.397945 -2.547217,4.765784 -3.231655,4.765784 -0.315707,0 -1.197502,-0.776097 -1.959539,-1.724661 z m 36.434754,1.014507 c -0.94019,-1.07099 -2.73847,-4.836772 -2.73847,-5.734637 0,-0.47623 0.77993,-1.364814 1.96168,-2.234961 2.50006,-1.840841 4.92352,-4.479411 6.76194,-7.362141 1.55754,-2.442296 2.33046,-2.668332 2.52327,-0.737915 0.35356,3.53998 -2.20929,10.687483 -5.24949,14.640234 -1.77214,2.304066 -2.29122,2.53175 -3.25893,1.42942 z M 67.689325,76.097769 c -2.558701,-1.165587 -3.601032,-2.938609 -3.601032,-6.125416 0,-3.186806 1.042331,-4.959828 3.601032,-6.125415 2.197424,-1.001011 3.738834,-0.964594 5.91832,0.139826 2.535946,1.285051 3.628903,3.087797 3.628903,5.985589 0,2.897793 -1.092957,4.700539 -3.628903,5.98559 -2.179486,1.10442 -3.720896,1.140837 -5.91832,0.139826 z m 69.624625,0.198062 c -1.74215,-0.780011 -3.28664,-2.610242 -3.86408,-4.578983 -1.38994,-4.738836 2.9758,-9.395457 7.93384,-8.46247 1.99445,0.375309 4.51401,2.756107 5.05689,4.778391 1.48642,5.537075 -4.03994,10.540519 -9.12665,8.263062 z M 98.273755,75.480027 c -1.00129,-0.278738 -2.412721,-0.815202 -3.13651,-1.192143 l -1.315978,-0.685348 0.251103,-4.554259 c 0.227307,-4.122665 0.01367,-6.61683 -0.868905,-10.14406 -0.231725,-0.926098 -0.146019,-1.105944 0.527054,-1.105944 1.045942,0 3.725124,3.482099 5.314938,6.907756 2.274953,4.901966 3.207023,10.575032 1.824853,11.107047 -0.35196,0.135475 -0.67055,0.229989 -0.70798,0.210032 -0.0374,-0.01996 -0.887285,-0.264344 -1.888575,-0.543081 z m 10.950335,-0.1813 c -0.74578,-1.397783 0.54937,-7.329904 2.40565,-11.018437 1.47105,-2.923096 4.27995,-6.482017 5.11596,-6.482017 0.6966,0 0.70912,-0.298663 -0.25529,6.08704 -0.26631,1.763403 -0.25969,3.77737 0.02,6.07593 0.49087,4.034382 0.49478,4.028641 -3.60814,5.299791 -3.15497,0.977461 -3.17663,0.977682 -3.67816,0.03769 z M 87.384152,68.856396 c -2.246138,-2.291705 -3.518719,-4.02576 -4.690492,-6.391392 -1.883845,-3.803206 -2.051508,-5.877462 -0.713432,-8.826208 0.74678,-1.645692 1.043874,-1.927563 2.031688,-1.927563 0.636347,0 2.085204,0.463964 3.219676,1.03103 1.745235,0.872355 2.226631,1.378358 3.12799,3.287898 1.514359,3.208184 2.237428,6.695392 2.24433,10.8239 0.0063,3.752696 -0.395928,5.147306 -1.48447,5.147306 -0.359069,0 -2.039954,-1.415237 -3.73529,-3.144971 z m 30.946828,2.790173 c -0.12023,-0.195138 -0.33614,-1.623264 -0.47979,-3.173612 -0.32676,-3.526702 0.62458,-8.632095 2.27481,-12.207668 1.05804,-2.292495 1.38993,-2.64752 3.31569,-3.546809 3.35296,-1.565757 4.09048,-1.406423 5.19912,1.123217 1.32566,3.024842 1.17358,4.558127 -0.86069,8.677244 -2.57329,5.210537 -8.39667,10.835781 -9.44914,9.127628 z M 101.91481,61.410903 c -2.657978,-1.562833 -3.798992,-4.312297 -3.137388,-7.560063 0.373176,-1.831901 2.149778,-3.966355 3.836928,-4.609776 1.81691,-0.692905 4.74934,-0.435524 6.18212,0.542607 2.34123,1.598318 3.0301,2.903838 3.0301,5.742583 0,2.154962 -0.1711,2.76311 -1.13346,4.028696 -0.6234,0.819829 -1.66117,1.764323 -2.30614,2.098875 -1.68495,0.873992 -4.76948,0.758219 -6.47216,-0.242922 z"
         id="path840"
         inkscape:connector-curvature="0" />
    </g>
  </g>
</svg>
