<?xml version="1.0" encoding="UTF-8" standalone="no"?>
<!-- Created with Inkscape (http://www.inkscape.org/) -->

<svg
   xmlns:dc="http://purl.org/dc/elements/1.1/"
   xmlns:cc="http://creativecommons.org/ns#"
   xmlns:rdf="http://www.w3.org/1999/02/22-rdf-syntax-ns#"
   xmlns:svg="http://www.w3.org/2000/svg"
   xmlns="http://www.w3.org/2000/svg"
   xmlns:sodipodi="http://sodipodi.sourceforge.net/DTD/sodipodi-0.dtd"
   xmlns:inkscape="http://www.inkscape.org/namespaces/inkscape"
   width="500"
   height="525"
   viewBox="0 0 132.29166 138.90625"
   version="1.1"
   id="svg8"
   inkscape:version="0.92.3 (2405546, 2018-03-11)"
   sodipodi:docname="HRnet_logo.svg">
  <defs
     id="defs2" />
  <sodipodi:namedview
     id="base"
     pagecolor="#ffffff"
     bordercolor="#666666"
     borderopacity="1.0"
     inkscape:pageopacity="0.0"
     inkscape:pageshadow="2"
     inkscape:zoom="1"
     inkscape:cx="110.95874"
     inkscape:cy="250"
     inkscape:document-units="px"
     inkscape:current-layer="svg8"
     showgrid="false"
     units="px"
     showborder="true"
     inkscape:showpageshadow="false"
     inkscape:window-width="1920"
     inkscape:window-height="1001"
     inkscape:window-x="-9"
     inkscape:window-y="-9"
     inkscape:window-maximized="1" />
  <metadata
     id="metadata5">
    <rdf:RDF>
      <cc:Work
         rdf:about="">
        <dc:format>image/svg+xml</dc:format>
        <dc:type
           rdf:resource="http://purl.org/dc/dcmitype/StillImage" />
        <dc:title></dc:title>
      </cc:Work>
    </rdf:RDF>
  </metadata>
  <g
     inkscape:label="Calque 1"
     inkscape:groupmode="layer"
     id="layer1"
     transform="translate(0,-158.09374)"
     style="display:inline">
    <g
       id="g826"
       transform="translate(-39.073673,126.05051)"
       style="display:inline">
      <path
         style="display:none;fill:#fafbf9;stroke-width:1"
         d="M 39.073671,101.49636 V 32.043227 h 66.145839 66.14583 v 69.453133 69.45312 H 105.21951 39.073671 Z"
         id="path842"
         inkscape:connector-curvature="0" />
      <path
         style="display:inline;fill:#cad3ae;stroke-width:1"
         d="m 102.72414,150.68648 c -2.56402,-1.08157 -4.045825,-3.46159 -4.045825,-6.49824 0,-5.83773 6.452945,-8.74984 10.959775,-4.94596 4.59201,3.87577 2.13683,11.37945 -3.84288,11.74487 -1.13293,0.0692 -2.51492,-0.0661 -3.07107,-0.30067 z M 81.980226,146.3521 c -1.338897,-2.95055 -1.174847,-5.06401 0.686731,-8.84725 1.157823,-2.35301 2.419509,-4.07599 4.664831,-6.37035 3.239228,-3.30996 4.576357,-3.90409 5.023111,-2.23191 0.544968,2.03977 0.239779,7.81297 -0.57267,10.83319 -1.235604,4.59326 -2.219105,6.11281 -4.807604,7.42793 -3.211706,1.63175 -3.939311,1.51351 -4.994399,-0.81161 z m 41.418274,0.82289 c -1.9535,-0.96109 -2.30194,-1.33683 -3.31212,-3.57157 -1.62704,-3.59937 -2.55606,-8.62247 -2.23519,-12.08548 0.14365,-1.55035 0.35956,-2.97847 0.47979,-3.17361 0.59898,-0.97214 2.09794,-0.15571 4.83254,2.63214 2.18949,2.23213 3.37432,3.88658 4.68856,6.54697 2.03592,4.12126 2.16487,5.67333 0.71503,8.60609 -1.17924,2.38539 -2.07628,2.56684 -5.16861,1.04546 z M 93.187523,141.6539 c -0.11335,-0.29629 0.02152,-1.07239 0.299687,-1.72466 0.324717,-0.76139 0.515614,-3.36501 0.533253,-7.27298 0.01513,-3.34787 0.164361,-6.30649 0.331663,-6.5747 0.428532,-0.68702 5.704524,-2.32923 6.499774,-2.02313 0.90327,0.34768 0.85409,2.62777 -0.14084,6.52986 -0.942657,3.69703 -2.76092,7.28458 -4.964988,9.79622 -1.660171,1.89184 -2.215096,2.16716 -2.558549,1.26939 z m 22.811087,0.11461 c -1.35137,-0.79066 -4.75111,-6.49812 -5.7386,-9.6339 -1.26577,-4.0195 -1.51965,-7.32265 -0.60815,-7.91239 0.75129,-0.4861 6.0806,1.03889 6.8406,1.95744 0.31447,0.38008 0.31479,1.4343 0.001,3.73212 -0.30515,2.23549 -0.31144,4.05223 -0.0208,6.01697 0.22895,1.548 0.53083,3.59065 0.67083,4.53922 0.2605,1.76499 0.0526,2.00119 -1.14497,1.30054 z m -46.91696,-5.2478 c -3.550167,-1.07265 -5.396358,-3.66304 -5.106808,-7.16535 0.193815,-2.34431 0.985148,-3.76267 2.898904,-5.19588 0.854125,-0.63965 1.72249,-0.83668 3.687532,-0.83668 2.883928,0 4.155619,0.67544 5.800445,3.08084 1.257062,1.83832 1.120411,5.60946 -0.271633,7.49618 -1.619159,2.19455 -4.658145,3.33101 -7.00844,2.62089 z m 69.29339,-0.0262 c -1.96131,-0.44143 -3.356,-1.59669 -4.39872,-3.64361 -1.15833,-2.27385 -1.1504,-3.87129 0.0303,-6.11637 2.5502,-4.84896 9.59458,-4.75476 11.9665,0.16001 1.00906,2.09082 1.06491,3.44093 0.22571,5.45558 -1.38378,3.32202 -4.39368,4.91641 -7.82384,4.14439 z m -58.177022,-2.92517 c 0.398886,-4.72693 2.479352,-9.87716 5.32762,-13.18859 2.101257,-2.44295 2.703896,-2.28359 4.426617,1.17048 0.794171,1.59233 1.44395,3.13385 1.44395,3.42561 0,0.29175 -1.069706,1.3561 -2.377124,2.36523 -2.516317,1.9422 -4.896406,4.5981 -6.671554,7.44468 -0.591534,0.94856 -1.373025,1.72466 -1.736646,1.72466 -0.573834,0 -0.628349,-0.38847 -0.412863,-2.94207 z m 48.034302,1.26958 c -1.16652,-2.08189 -5.71061,-6.95413 -7.54827,-8.09335 -1.73118,-1.07322 -1.73925,-1.86312 -0.0536,-5.24886 1.74629,-3.50756 2.51294,-3.62652 4.69435,-0.7284 2.96431,3.93825 5.28461,10.2449 5.30687,14.42424 0.0103,1.93576 -1.21801,1.75472 -2.39934,-0.35363 z M 91.582801,121.39524 c -0.805507,-1.61814 -1.632148,-3.11555 -1.836981,-3.32758 -1.135824,-1.17574 0.785213,-3.01261 5.29144,-5.05961 2.833513,-1.28716 3.557165,-1.13822 4.464302,0.91881 1.121118,2.54224 2.135998,7.19864 1.670698,7.66537 -0.38168,0.38285 -7.056191,2.74508 -7.756265,2.74508 -0.202754,0 -1.027692,-1.32393 -1.833194,-2.94207 z m 21.476649,1.72938 c -1.76951,-0.60411 -3.40544,-1.39758 -3.6354,-1.76326 -0.29907,-0.47558 -0.22417,-1.40661 0.26308,-3.27004 1.02347,-3.91419 1.97274,-5.70108 3.11478,-5.86321 1.14683,-0.16282 6.45236,2.43384 7.7045,3.77078 l 0.86142,0.91975 -1.94482,3.6035 c -1.06964,1.98194 -2.21514,3.62542 -2.54554,3.65219 -0.3304,0.0268 -2.04851,-0.4456 -3.81802,-1.04971 z m -9.69978,-1.85982 c -0.34966,-0.35072 -0.63574,-1.08754 -0.63574,-1.63737 0,-0.54983 -0.4771,-2.44768 -1.06023,-4.21745 -0.58313,-1.76978 -0.95295,-3.49821 -0.82182,-3.84096 0.19213,-0.50224 1.00646,-0.62199 4.19558,-0.61699 2.17645,0.003 4.22063,0.17341 4.54264,0.37775 0.49845,0.31632 0.42675,0.84307 -0.48246,3.54456 -0.58735,1.74517 -1.19042,3.81217 -1.34015,4.59334 -0.14974,0.78117 -0.45557,1.64857 -0.67964,1.92756 -0.57411,0.71486 -2.95888,0.6312 -3.71818,-0.13044 z m -39.47366,-1.53654 c 0,-0.30307 1.064719,-1.21023 2.366042,-2.01591 2.257144,-1.39746 7.748,-6.76321 7.748,-7.57146 0,-0.21116 0.371095,-0.58313 0.824656,-0.82662 0.658313,-0.3534 1.288535,-0.22967 3.124379,0.61338 2.70378,1.24163 3.737637,2.09247 3.737637,3.07598 0,1.48014 -5.657564,5.02632 -10.257797,6.42962 -3.233111,0.98627 -7.542917,1.15482 -7.542917,0.29501 z m 75.45075,-0.19902 c -4.96226,-1.45049 -11.1677,-5.61272 -10.59599,-7.10715 0.14703,-0.38434 1.66974,-1.36684 3.3838,-2.18334 l 3.11647,-1.48454 1.44102,1.80596 c 2.30589,2.88987 5.02464,5.46578 7.54058,7.14442 1.28613,0.8581 2.35142,1.7428 2.36732,1.96599 0.0497,0.69813 -4.69781,0.60561 -7.2532,-0.14134 z m -84.750414,-0.9666 c -1.28654,-0.53555 -2.276157,-1.21741 -2.353798,-1.6218 -0.07368,-0.38377 0.363972,-1.81071 0.972561,-3.17099 0.940379,-2.10187 1.384922,-2.613 2.960641,-3.40412 3.923174,-1.9697 6.06021,-2.4433 11.071476,-2.45362 6.709901,-0.0138 6.918265,0.58699 1.90291,5.48686 -3.094485,3.02323 -7.794276,5.65622 -10.566463,5.91972 -1.226643,0.1166 -2.446756,-0.11475 -3.987327,-0.75605 z m 92.989634,-0.78503 c -2.5545,-1.2756 -4.15337,-2.45772 -6.51983,-4.82044 -1.72445,-1.72171 -3.13535,-3.43095 -3.13535,-3.79832 0,-2.42774 11.30306,-1.68565 16.33011,1.07215 1.29597,0.71095 1.96985,1.50483 2.99098,3.52358 1.56057,3.08522 1.35003,3.75996 -1.53997,4.93531 -2.82015,1.14695 -4.34499,0.97577 -8.12594,-0.91228 z m -61.259767,-4.01522 -1.185754,-1.24146 0.923225,-1.49771 c 0.507774,-0.82374 1.573673,-2.82164 2.368665,-4.43978 1.094553,-2.22787 1.647322,-2.94207 2.277075,-2.94207 1.136936,0 5.956083,4.87453 5.956083,6.02453 0,0.68121 -0.508482,1.10992 -2.213588,1.86631 -1.217472,0.54007 -3.025288,1.54213 -4.017366,2.2268 -0.992083,0.68466 -2.055513,1.24484 -2.363183,1.24484 -0.307673,0 -1.092992,-0.55866 -1.745157,-1.24146 z m 34.159457,0.25281 c -0.79776,-0.54376 -2.61375,-1.59377 -4.03553,-2.33337 -1.42178,-0.73959 -2.63924,-1.63321 -2.70545,-1.98581 -0.17863,-0.95112 5.11985,-6.12137 6.12016,-5.97205 0.5353,0.0799 1.29907,1.0743 2.27422,2.96092 0.80753,1.56234 1.87493,3.50458 2.372,4.31608 l 0.90376,1.47545 -1.06009,1.26372 c -1.27724,1.52257 -1.96688,1.57159 -3.86907,0.27506 z m -40.609473,-4.70407 c -1.557563,-0.8442 -3.042919,-1.72648 -3.300792,-1.96061 -0.351541,-0.31916 -0.16663,-1.36839 0.738984,-4.19315 0.664315,-2.0721 1.389944,-3.880344 1.612508,-4.018324 1.120009,-0.694317 8.604962,1.683624 9.279625,2.948114 0.320272,0.60026 0.09999,1.41875 -0.998199,3.70899 -1.70293,3.55139 -2.913269,5.16656 -3.821575,5.09979 -0.37324,-0.0274 -1.952989,-0.7406 -3.510551,-1.58481 z m 45.169533,-0.42167 c -1.74314,-2.67083 -3.05488,-5.86241 -2.74374,-6.67573 0.45054,-1.17767 7.37749,-3.544911 9.19694,-3.142994 0.41817,0.0924 0.97146,1.251994 1.5602,3.269934 1.28807,4.41504 1.26949,4.98884 -0.18536,5.72407 -0.66752,0.33734 -2.09053,1.12359 -3.16223,1.74722 -1.0717,0.62362 -2.25796,1.13386 -2.63613,1.13386 -0.38005,0 -1.28787,-0.91975 -2.02968,-2.05636 z m -27.656968,-1.50438 c -0.905361,-1.17724 -2.576298,-2.90044 -3.713193,-3.82932 -1.136895,-0.92889 -2.219227,-1.81659 -2.40518,-1.97267 -0.185957,-0.15608 -0.3381,-3.010341 -0.3381,-6.342793 v -6.059025 l 4.181436,-4.201166 4.181432,-4.201165 6.207963,-0.03457 6.20796,-0.03458 1.4383,1.965363 c 0.79106,1.080949 2.5488,2.892387 3.90608,4.025417 l 2.46778,2.060057 0.0162,6.121532 0.0162,6.12152 -3.30331,3.24642 c -1.81683,1.78553 -3.58458,3.67712 -3.92836,4.20352 -0.60972,0.93366 -0.78015,0.95851 -6.95704,1.01451 l -6.331999,0.0574 -1.646109,-2.14044 z m -38.964173,-0.51325 c -0.431704,-0.70066 3.048056,-3.56663 6.366766,-5.24375 3.257391,-1.646117 8.306342,-3.013361 10.288172,-2.786001 0.844302,0.0969 1.19081,0.381367 1.286262,1.056104 0.1793,1.267457 -1.469629,6.094467 -2.227164,6.519697 -0.338759,0.19017 -1.371022,0.19903 -2.293917,0.0197 -2.621511,-0.50939 -6.670649,-0.40396 -9.769074,0.25435 -3.371791,0.71639 -3.321993,0.71394 -3.651045,0.17989 z M 148.4394,106.668 c -2.56901,-0.59293 -7.13531,-0.7029 -9.56695,-0.23042 -0.93618,0.18191 -1.96628,0.16422 -2.3301,-0.04 -1.12391,-0.6309 -2.87313,-5.80367 -2.3898,-7.067084 0.50753,-1.326654 7.68594,0.0833 11.90329,2.338044 4.14791,2.21759 7.51342,5.74289 5.31663,5.56905 -0.38939,-0.0308 -1.70927,-0.28713 -2.93307,-0.56958 z m -94.901511,-5.41937 c -3.070418,-1.398797 -4.751971,-4.763809 -3.864797,-7.733991 0.940648,-3.149231 3.635334,-5.293719 6.651902,-5.293719 2.17954,0 4.749966,1.605773 5.820293,3.635998 1.978697,3.753229 0.632706,7.566098 -3.316298,9.394262 -2.039926,0.94437 -3.213791,0.94381 -5.2911,-0.002 z m 98.862721,0.38619 c -3.00312,-0.95671 -4.77033,-3.438118 -4.77033,-6.6982 0,-2.349555 0.7837,-3.91061 2.69887,-5.375866 1.25584,-0.960811 1.87182,-1.136933 3.97639,-1.136933 2.12106,0 2.71703,0.17342 4.0189,1.16945 3.62877,2.776284 3.55627,8.582601 -0.13765,11.023029 -1.65115,1.09086 -4.16828,1.53394 -5.78618,1.01852 z m -30.73968,-2.099047 c -0.77007,-0.476787 -0.97528,-7.614615 -0.24706,-8.593273 0.51547,-0.692725 0.72609,-0.669177 4.37747,0.489439 2.10976,0.669446 4.34632,1.322423 4.97012,1.451063 1.07178,0.22103 1.12742,0.338777 1.0114,2.140568 -0.10562,1.640321 -0.26406,1.945518 -1.13418,2.184708 -0.55627,0.152907 -2.6847,0.812914 -4.72986,1.466671 -2.17877,0.696467 -3.93767,1.052904 -4.24789,0.860824 z M 86.541464,99.211896 c -0.534818,-0.322607 -3.097939,-1.034254 -6.59482,-1.831021 -1.081847,-0.246497 -1.127716,-0.352467 -1.011406,-2.336505 l 0.121835,-2.078288 3.034213,-0.721707 c 1.668817,-0.396937 3.732818,-1.017188 4.586669,-1.378332 1.142475,-0.483226 1.693451,-0.539259 2.086353,-0.212178 0.705977,0.587708 1.121356,4.605842 0.713348,6.90048 -0.27437,1.543071 -0.480049,1.841411 -1.327023,1.924858 -0.55128,0.0543 -1.275405,-0.066 -1.609169,-0.267307 z M 72.286081,91.048224 c -4.71373,-0.796148 -10.133951,-3.43068 -12.815925,-6.229258 -1.160795,-1.211264 -1.274714,-1.482872 -0.712686,-1.699205 0.367927,-0.141617 1.626851,-0.01307 2.797609,0.28564 1.862987,0.475341 7.321601,0.594915 11.433569,0.250458 1.074333,-0.09 1.315661,0.108 2.101836,1.724442 1.193885,2.454729 1.625623,5.248652 0.88388,5.71989 -0.635604,0.403806 -1.022061,0.39836 -3.688283,-0.05197 z m 62.024279,-0.152578 c -0.42768,-0.516903 -0.36834,-1.126691 0.33594,-3.452512 0.97813,-3.230145 1.77509,-4.251761 3.06373,-3.927342 2.13488,0.537465 6.67627,0.686999 8.90884,0.293342 1.33505,-0.235398 3.11007,-0.549915 3.94448,-0.698922 5.12603,-0.915393 -3.25581,5.571054 -9.40606,7.279061 -3.75938,1.044025 -6.2497,1.228205 -6.84693,0.506373 z M 78.546483,90.554285 c -0.22406,-0.278989 -0.542053,-1.146393 -0.706652,-1.927563 -0.164598,-0.78117 -0.62559,-2.255889 -1.024427,-3.277152 -0.398837,-1.021268 -0.590396,-2.075568 -0.425687,-2.34289 0.362668,-0.588609 6.368469,-3.713419 7.137087,-3.713419 1.233165,0 5.317879,7.316699 4.816449,8.627409 -0.408656,1.068211 -5.946462,3.101189 -8.528662,3.130946 -0.473398,0.0055 -1.044048,-0.218342 -1.268108,-0.497331 z m 47.482367,-0.616244 c -1.75662,-0.609629 -3.38192,-1.408517 -3.61177,-1.775305 -0.78198,-1.247848 3.09677,-8.86198 4.52158,-8.876049 1.02307,-0.01011 7.33086,3.390116 7.33629,3.954628 0.005,0.511279 -1.40567,5.270236 -2.04733,6.907167 -0.48843,1.246034 -2.16611,1.189075 -6.19877,-0.210441 z M 89.128782,84.716883 c -0.393853,-1.034456 -1.410201,-2.958034 -2.25855,-4.27462 -0.84835,-1.316586 -1.542453,-2.545617 -1.542453,-2.731178 0,-0.769329 1.738649,-2.475851 2.522455,-2.475851 0.465015,0 1.680658,0.532482 2.701428,1.183296 1.02077,0.650815 2.766211,1.609523 3.878755,2.130464 1.112545,0.520942 2.14762,1.121521 2.300164,1.334616 0.439908,0.61452 -0.903944,2.573694 -3.243031,4.727951 -2.739097,2.522664 -3.432026,2.539407 -4.358768,0.105322 z m 27.280498,-0.889828 c -1.51921,-1.523858 -2.76219,-3.078354 -2.76219,-3.45444 0,-0.439667 0.80421,-1.040535 2.2526,-1.683046 1.23893,-0.549595 3.06858,-1.551652 4.0659,-2.226798 0.99731,-0.675146 2.1521,-1.227537 2.56618,-1.227537 0.93818,0 2.95407,2.33477 2.5699,2.976429 -0.15571,0.260091 -0.85885,1.38595 -1.56251,2.501907 -0.70367,1.115958 -1.65956,2.896417 -2.12421,3.956576 -0.5388,1.229359 -1.09813,1.927563 -1.54415,1.927563 -0.38464,0 -1.94233,-1.246792 -3.46152,-2.770654 z M 62.470044,81.964092 c -3.602857,-0.835268 -6.836386,-2.155312 -7.79507,-3.182232 -0.909777,-0.974535 -2.521252,-4.444407 -2.521252,-5.428832 0,-0.822745 4.327602,-2.758151 6.083538,-2.720703 2.328301,0.04965 7.37211,2.793078 10.534418,5.729872 3.342201,3.103859 4.303403,4.620355 3.403403,5.369581 -0.888615,0.739746 -6.895993,0.88355 -9.705037,0.232314 z m 77.073586,0.244634 c -0.79021,-0.155508 -1.46386,-0.553316 -1.53064,-0.903881 -0.34337,-1.802665 5.6708,-7.241508 10.42641,-9.428999 3.20056,-1.472196 4.81432,-1.539815 7.58553,-0.317845 2.5165,1.109659 2.67991,1.853743 1.13704,5.177697 -1.07853,2.323593 -2.78439,3.465157 -7.10432,4.75423 -2.48863,0.742606 -8.35505,1.143669 -10.51402,0.718798 z M 73.361423,78.988909 c -2.132116,-2.659675 -4.402204,-4.770454 -7.172576,-6.669221 -1.292293,-0.885717 -2.279563,-1.824683 -2.193934,-2.086592 0.262335,-0.802386 2.584675,-0.77196 5.934548,0.07775 3.979156,1.00933 7.115332,2.480178 9.760925,4.577812 2.711272,2.149712 2.602768,2.9545 -0.633313,4.697544 -3.280611,1.767031 -3.848001,1.707528 -5.69565,-0.597293 z m 58.019447,0.567349 c -3.5202,-1.868421 -3.5391,-2.508522 -0.1458,-4.937361 3.38825,-2.425219 7.24761,-4.03967 11.24372,-4.70348 2.78675,-0.462918 3.21502,-0.448728 3.78749,0.125496 0.59089,0.592708 0.45255,0.771206 -1.63665,2.111755 -2.89367,1.856734 -5.52131,4.282874 -7.36055,6.796099 -1.75133,2.393116 -2.39824,2.459858 -5.88821,0.607491 z m -30.01219,-0.550537 c -0.85871,-0.221893 -0.81566,-0.643384 0.55087,-5.393697 0.48155,-1.673936 1.00045,-3.500048 1.15312,-4.058027 0.24834,-0.907625 0.4881,-1.014507 2.27579,-1.014507 h 1.9982 l 0.64666,2.840619 c 0.35567,1.56234 0.98768,3.731445 1.40447,4.820229 0.7409,1.935432 0.74087,1.992033 -0.001,2.536267 -0.73823,0.541463 -6.25795,0.726497 -8.02797,0.269116 z m -7.342824,-2.353947 c -1.557563,-0.790922 -3.278807,-1.885599 -3.82499,-2.432617 l -0.993061,-0.994578 1.759014,-3.357051 c 0.967457,-1.846378 1.912561,-3.528108 2.100233,-3.737178 0.208795,-0.232602 1.403113,-0.04493 3.077384,0.483566 1.504888,0.475031 3.129337,0.972729 3.609887,1.105996 1.651907,0.458111 1.836147,1.118122 1.151447,4.125048 -0.76378,3.354255 -2.158692,5.988203 -3.249795,6.136422 -0.439002,0.05963 -2.072557,-0.538691 -3.630119,-1.329608 z M 111.0225,75.945389 c -1.19627,-2.65046 -2.13609,-7.071874 -1.6031,-7.541908 0.55084,-0.485779 7.34676,-2.611362 7.80506,-2.441215 0.21097,0.07832 1.22748,1.765318 2.2589,3.748875 1.78591,3.434526 1.84231,3.643052 1.18295,4.37387 -0.87591,0.970838 -6.85226,3.990842 -7.89757,3.990842 -0.55476,0 -1.06639,-0.62421 -1.74624,-2.130464 z m -25.407826,-6.08704 c -3.16474,-3.939384 -5.014987,-8.428722 -5.411789,-13.130853 -0.311654,-3.693119 0.224815,-4.102674 1.962638,-1.498325 0.714861,1.071314 3.103546,3.729382 5.308185,5.906818 l 4.008438,3.958973 -0.676278,1.722264 c -0.941601,2.397945 -2.547217,4.765784 -3.231655,4.765784 -0.315707,0 -1.197502,-0.776097 -1.959539,-1.724661 z m 36.434756,1.014507 c -0.94019,-1.07099 -2.73847,-4.836772 -2.73847,-5.734637 0,-0.47623 0.77993,-1.364814 1.96168,-2.234961 2.50006,-1.840841 4.92352,-4.479411 6.76194,-7.362141 1.55754,-2.442296 2.33046,-2.668332 2.52327,-0.737915 0.35356,3.53998 -2.20929,10.687483 -5.24949,14.640234 -1.77214,2.304066 -2.29122,2.53175 -3.25893,1.42942 z M 67.689323,66.345951 c -2.558701,-1.165587 -3.601032,-2.938609 -3.601032,-6.125416 0,-3.186806 1.042331,-4.959828 3.601032,-6.125415 2.197424,-1.001011 3.738834,-0.964594 5.91832,0.139826 2.535946,1.285051 3.628903,3.087797 3.628903,5.985589 0,2.897793 -1.092957,4.700539 -3.628903,5.98559 -2.179486,1.10442 -3.720896,1.140837 -5.91832,0.139826 z m 69.624627,0.198062 c -1.74215,-0.780011 -3.28664,-2.610242 -3.86408,-4.578983 -1.38994,-4.738836 2.9758,-9.395457 7.93384,-8.46247 1.99445,0.375309 4.51401,2.756107 5.05689,4.778391 1.48642,5.537075 -4.03994,10.540519 -9.12665,8.263062 z M 98.273753,65.728209 c -1.00129,-0.278738 -2.412721,-0.815202 -3.13651,-1.192143 l -1.315978,-0.685348 0.251103,-4.554259 c 0.227307,-4.122665 0.01367,-6.61683 -0.868905,-10.14406 -0.231725,-0.926098 -0.146019,-1.105944 0.527054,-1.105944 1.045942,0 3.725124,3.482099 5.314938,6.907756 2.274955,4.901966 3.207025,10.575032 1.824855,11.107047 -0.35196,0.135475 -0.67055,0.229989 -0.70798,0.210032 -0.0374,-0.01996 -0.887287,-0.264344 -1.888577,-0.543081 z m 10.950337,-0.1813 c -0.74578,-1.397783 0.54937,-7.329904 2.40565,-11.018437 1.47105,-2.923096 4.27995,-6.482017 5.11596,-6.482017 0.6966,0 0.70912,-0.298663 -0.25529,6.08704 -0.26631,1.763403 -0.25969,3.77737 0.02,6.07593 0.49087,4.034382 0.49478,4.028641 -3.60814,5.299791 -3.15497,0.977461 -3.17663,0.977682 -3.67816,0.03769 z M 87.38415,59.104578 c -2.246138,-2.291705 -3.518719,-4.02576 -4.690492,-6.391392 -1.883845,-3.803206 -2.051508,-5.877462 -0.713432,-8.826208 0.74678,-1.645692 1.043874,-1.927563 2.031688,-1.927563 0.636347,0 2.085204,0.463964 3.219676,1.03103 1.745235,0.872355 2.226631,1.378358 3.12799,3.287898 1.514359,3.208184 2.237428,6.695392 2.24433,10.8239 0.0063,3.752696 -0.395928,5.147306 -1.48447,5.147306 -0.359069,0 -2.039954,-1.415237 -3.73529,-3.144971 z m 30.94683,2.790173 c -0.12023,-0.195138 -0.33614,-1.623264 -0.47979,-3.173612 -0.32676,-3.526702 0.62458,-8.632095 2.27481,-12.207668 1.05804,-2.292495 1.38993,-2.64752 3.31569,-3.546809 3.35296,-1.565757 4.09048,-1.406423 5.19912,1.123217 1.32566,3.024842 1.17358,4.558127 -0.86069,8.677244 -2.57329,5.210537 -8.39667,10.835781 -9.44914,9.127628 z M 101.91481,51.659085 c -2.65798,-1.562833 -3.798994,-4.312297 -3.13739,-7.560063 0.373176,-1.831901 2.14978,-3.966355 3.83693,-4.609776 1.81691,-0.692905 4.74934,-0.435524 6.18212,0.542607 2.34123,1.598318 3.0301,2.903838 3.0301,5.742583 0,2.154962 -0.1711,2.76311 -1.13346,4.028696 -0.6234,0.819829 -1.66117,1.764323 -2.30614,2.098875 -1.68495,0.873992 -4.76948,0.758219 -6.47216,-0.242922 z"
         id="path840"
         inkscape:connector-curvature="0" />
      <path
         style="font-style:normal;font-variant:normal;font-weight:normal;font-stretch:normal;font-size:12.65548038px;line-height:0;font-family:'Goudy Old Style';-inkscape-font-specification:'Goudy Old Style';letter-spacing:0.51966566px;word-spacing:0px;display:inline;fill:#6c6753;fill-opacity:1;stroke:none;stroke-width:0.26458332"
         d="m 75.223118,156.48031 c -0.06708,0 -0.127929,0.0628 -0.182407,0.18871 l -3.230779,7.17229 -0.182413,0.41474 c -0.09217,0.19276 -0.209717,0.37912 -0.352198,0.55931 -0.142483,0.176 -0.255246,0.2766 -0.339055,0.30173 l -0.232876,0.0693 c -0.07126,0.0209 -0.106709,0.0647 -0.106709,0.13192 0,0.0753 0.05662,0.11303 0.169791,0.11303 0.02094,0 0.138477,-0.008 0.3522,-0.0252 0.06708,-0.004 0.16128,-0.006 0.282809,-0.006 0.264011,0 0.496419,0.004 0.697569,0.0125 l 0.603471,0.0314 c 0.09636,0.004 0.167325,0.006 0.213422,0.006 0.121529,0 0.180292,-0.0355 0.1761,-0.1067 -0.0041,-0.0753 -0.0688,-0.12573 -0.194495,-0.15087 -0.289155,-0.0628 -0.483976,-0.13857 -0.584552,-0.22656 -0.09636,-0.0879 -0.145083,-0.23042 -0.145083,-0.4274 0,-0.20533 0.09263,-0.51978 0.277028,-0.94303 l 0.408446,-0.92415 c 0.125721,-0.28494 0.226306,-0.45224 0.301739,-0.50253 0.07544,-0.0502 0.268132,-0.0755 0.578238,-0.0755 h 2.275634 c 0.234673,0 0.377083,0.019 0.42737,0.0566 0.05027,0.0335 0.119638,0.16534 0.207643,0.39585 l 0.313824,0.83005 c 0.25563,0.6621 0.383741,1.10415 0.383741,1.32624 0,0.24307 -0.104818,0.38547 -0.314354,0.42737 l -0.19502,0.0441 c -0.104767,0.0209 -0.157179,0.0647 -0.157179,0.13195 0,0.0879 0.05451,0.13196 0.163485,0.13196 0.04191,0 0.107022,-0.008 0.195023,-0.0252 0.146673,-0.0251 0.511425,-0.0378 1.093927,-0.0378 0.557355,0 0.944872,0.0106 1.162786,0.0314 0.121525,0.008 0.200936,0.0126 0.238653,0.0126 0.113146,0 0.171908,-0.0355 0.176099,-0.10669 0.0042,-0.0795 -0.05877,-0.13203 -0.188716,-0.15718 -0.398108,-0.0711 -0.661752,-0.1676 -0.791659,-0.28913 -0.129911,-0.12572 -0.293495,-0.44229 -0.490455,-0.94936 l -0.13825,-0.33958 -2.703006,-6.91416 c -0.04609,-0.12153 -0.102743,-0.18241 -0.169792,-0.18241 z m 56.577532,0 c -0.0669,0 -0.12739,0.0628 -0.18186,0.18871 l -3.23132,7.17229 -0.18187,0.41474 c -0.0921,0.19276 -0.20973,0.37912 -0.35221,0.55931 -0.14247,0.176 -0.25578,0.2766 -0.33959,0.30173 l -0.23234,0.0693 c -0.0711,0.0209 -0.10723,0.0647 -0.10723,0.13192 0,0.0753 0.0565,0.11303 0.16978,0.11303 0.0209,0 0.1385,-0.008 0.35221,-0.0252 0.0669,-0.004 0.16129,-0.006 0.28281,-0.006 0.26401,0 0.49641,0.004 0.69757,0.0125 l 0.60346,0.0314 c 0.0963,0.004 0.16786,0.006 0.21396,0.006 0.12152,0 0.18029,-0.0355 0.17609,-0.1067 -0.004,-0.0753 -0.0693,-0.12573 -0.19502,-0.15087 -0.28916,-0.0628 -0.48396,-0.13857 -0.58455,-0.22656 -0.0962,-0.0879 -0.14456,-0.23042 -0.14456,-0.4274 0,-0.20533 0.092,-0.51978 0.27651,-0.94303 l 0.40844,-0.92415 c 0.12572,-0.28494 0.22631,-0.45224 0.30174,-0.50253 0.0753,-0.0502 0.26813,-0.0755 0.57824,-0.0755 h 2.27564 c 0.23466,0 0.37709,0.019 0.42736,0.0566 0.0503,0.0335 0.11964,0.16534 0.20765,0.39585 l 0.31435,0.83005 c 0.25562,0.6621 0.38323,1.10415 0.38323,1.32624 0,0.24307 -0.10484,0.38547 -0.31438,0.42737 l -0.19449,0.0441 c -0.10476,0.0209 -0.15717,0.0647 -0.15717,0.13195 0,0.0879 0.0545,0.13196 0.16348,0.13196 0.0418,0 0.10649,-0.008 0.1945,-0.0252 0.14667,-0.0251 0.51141,-0.0378 1.09392,-0.0378 0.55736,0 0.94488,0.0106 1.16279,0.0314 0.12153,0.008 0.20147,0.0126 0.23918,0.0126 0.11315,0 0.17138,-0.0355 0.17557,-0.10669 0.004,-0.0795 -0.0582,-0.13203 -0.18818,-0.15718 -0.39811,-0.0711 -0.66228,-0.1676 -0.79219,-0.28913 -0.12992,-0.12572 -0.29349,-0.44229 -0.49045,-0.94936 l -0.13825,-0.33958 -2.70301,-6.91416 c -0.0459,-0.12153 -0.10275,-0.18241 -0.16981,-0.18241 z m -36.271875,0.20133 c -0.108955,-0.004 -0.163484,0.0375 -0.163484,0.12562 0,0.0753 0.06034,0.1215 0.181882,0.13827 0.356204,0.0545 0.60396,0.16352 0.742249,0.32696 0.138291,0.16344 0.207119,0.42709 0.207119,0.79167 v 5.39339 c 0,0.58668 -0.03337,0.99748 -0.100381,1.23217 -0.06708,0.23469 -0.193044,0.37286 -0.377435,0.41477 l -0.314348,0.0755 c -0.108958,0.0251 -0.16296,0.0753 -0.16296,0.15085 0,0.0794 0.05187,0.11934 0.15665,0.11934 0.04609,0 0.17844,-0.008 0.396359,-0.0252 0.159238,-0.0125 0.291061,-0.0189 0.395825,-0.0189 l 0.41476,-0.0126 0.5283,0.006 c 0.38973,0 0.64119,0.0106 0.75434,0.0314 0.15086,0.0209 0.25356,0.0315 0.30804,0.0315 0.12572,0 0.1866,-0.0439 0.18241,-0.13193 -0.004,-0.092 -0.0841,-0.14671 -0.23918,-0.16349 -0.37716,-0.0418 -0.63497,-0.15093 -0.77326,-0.32695 -0.13829,-0.17602 -0.20712,-0.482 -0.20712,-0.91782 v -2.30665 c 0,-0.19696 0.0291,-0.31873 0.0878,-0.36481 0.0586,-0.0502 0.20743,-0.0755 0.4463,-0.0755 h 3.702269 c 0.21373,0 0.33973,0.0169 0.37742,0.0504 0.0377,0.0335 0.0561,0.14893 0.0561,0.34589 v 2.30666 l -0.006,0.24547 c 0,0.64118 -0.21971,0.99956 -0.65971,1.075 -0.1383,0.0209 -0.20976,0.0691 -0.21395,0.14456 -0.004,0.0879 0.0459,0.12984 0.15085,0.12564 0.0293,0 0.17387,-0.0106 0.4337,-0.0314 0.12572,-0.0126 0.2263,-0.0189 0.30174,-0.0189 l 0.4715,-0.0125 0.46521,0.006 c 0.31853,0 0.52815,0.008 0.62871,0.0252 0.13412,0.021 0.24318,0.0314 0.32699,0.0314 0.12572,0 0.18448,-0.0503 0.1761,-0.15087 -0.004,-0.0669 -0.0712,-0.1089 -0.20135,-0.12564 -0.35618,-0.0376 -0.59708,-0.14252 -0.7228,-0.31435 -0.12572,-0.17184 -0.18869,-0.48205 -0.18869,-0.93045 V 157.869 c 0,-0.20952 0.0439,-0.39428 0.13195,-0.55354 0.0878,-0.16342 0.19705,-0.25766 0.32695,-0.2828 l 0.25759,-0.0561 c 0.10041,-0.0209 0.15086,-0.0631 0.15086,-0.12616 0,-0.0794 -0.0502,-0.11934 -0.15086,-0.11934 -0.0418,0 -0.1192,0.008 -0.23238,0.0252 -0.18017,0.0251 -0.49465,0.0378 -0.94303,0.0378 -0.31013,0 -0.60339,-0.0148 -0.87997,-0.0441 -0.19697,-0.0209 -0.33937,-0.0315 -0.42738,-0.0315 -0.1004,0 -0.15298,0.036 -0.15716,0.10725 -0.004,0.0753 0.0565,0.12573 0.18238,0.15086 0.29752,0.0669 0.50083,0.19041 0.6098,0.3706 0.11313,0.18018 0.16926,0.48619 0.16926,0.91782 v 2.14371 c 0,0.11733 -0.0249,0.19249 -0.075,0.22601 -0.0501,0.0335 -0.16781,0.0504 -0.3522,0.0504 h -3.708589 c -0.25982,0 -0.41493,-0.0232 -0.46522,-0.0693 -0.0461,-0.046 -0.0689,-0.18852 -0.0689,-0.42737 v -2.24412 c 0,-0.31009 0.0482,-0.53032 0.14456,-0.66023 0.0964,-0.13411 0.28485,-0.23628 0.56562,-0.30752 0.11315,-0.0293 0.16979,-0.0774 0.16979,-0.14456 0,-0.0879 -0.0609,-0.13246 -0.18241,-0.13246 -0.0628,0 -0.15074,0.008 -0.26388,0.0252 -0.25982,0.0335 -0.53881,0.0504 -0.83635,0.0504 -0.44001,0 -0.823298,-0.019 -1.150169,-0.0566 -0.171815,-0.0209 -0.297283,-0.0331 -0.376907,-0.0373 z m 14.131635,0 c -0.10895,-0.004 -0.16349,0.0375 -0.16349,0.12562 0,0.0753 0.0608,0.1215 0.18241,0.13827 0.35622,0.0545 0.60345,0.16352 0.74171,0.32696 0.13831,0.16344 0.20766,0.42709 0.20766,0.79167 v 5.39339 c 0,0.58668 -0.0333,0.99748 -0.10021,1.23217 -0.0669,0.23469 -0.19306,0.37286 -0.37743,0.41477 l -0.31437,0.0755 c -0.10893,0.0251 -0.16349,0.0753 -0.16349,0.15085 0,0.0794 0.0523,0.11934 0.15718,0.11934 0.046,0 0.17843,-0.008 0.39637,-0.0252 0.15923,-0.0125 0.29106,-0.0189 0.39582,-0.0189 l 0.41477,-0.0126 0.52828,0.006 c 0.38975,0 0.64121,0.0106 0.75433,0.0314 0.15088,0.0209 0.25306,0.0315 0.30755,0.0315 0.12572,0 0.18657,-0.0439 0.18239,-0.13193 -0.004,-0.092 -0.0835,-0.14671 -0.23867,-0.16349 -0.37715,-0.0418 -0.63496,-0.15093 -0.77324,-0.32695 -0.13828,-0.17602 -0.20764,-0.482 -0.20764,-0.91782 v -2.30665 c 0,-0.19696 0.0297,-0.31873 0.0881,-0.36481 0.0586,-0.0502 0.20744,-0.0755 0.44632,-0.0755 h 3.70231 c 0.21371,0 0.3397,0.0169 0.37742,0.0504 0.0377,0.0335 0.0561,0.14893 0.0561,0.34589 v 2.30666 l -0.006,0.24547 c 0,0.64118 -0.21969,0.99956 -0.65973,1.075 -0.13828,0.0209 -0.20974,0.0691 -0.21393,0.14456 -0.004,0.0879 0.046,0.12984 0.15086,0.12564 0.0294,0 0.17386,-0.0106 0.43369,-0.0314 0.12571,-0.0126 0.22629,-0.0189 0.30173,-0.0189 l 0.47152,-0.0125 0.46523,0.006 c 0.31848,0 0.52812,0.008 0.6287,0.0252 0.1341,0.021 0.24264,0.0314 0.32645,0.0314 0.12571,0 0.18447,-0.0503 0.17609,-0.15087 -0.004,-0.0669 -0.0707,-0.1089 -0.2008,-0.12564 -0.35623,-0.0376 -0.59761,-0.14252 -0.72332,-0.31435 -0.12573,-0.17184 -0.1882,-0.48205 -0.1882,-0.93045 V 157.869 c 0,-0.20952 0.0439,-0.39428 0.13194,-0.55354 0.0879,-0.16342 0.19706,-0.25766 0.32697,-0.2828 l 0.25759,-0.0561 c 0.1004,-0.0209 0.15086,-0.0631 0.15086,-0.12616 0,-0.0794 -0.0502,-0.11934 -0.15086,-0.11934 -0.0418,0 -0.11974,0.008 -0.23288,0.0252 -0.18022,0.0251 -0.49413,0.0378 -0.94253,0.0378 -0.3101,0 -0.60339,-0.0148 -0.87998,-0.0441 -0.19696,-0.0209 -0.33938,-0.0315 -0.42737,-0.0315 -0.10042,0 -0.15298,0.036 -0.15718,0.10725 -0.004,0.0753 0.056,0.12573 0.18188,0.15086 0.29755,0.0669 0.50083,0.19041 0.60978,0.3706 0.11315,0.18018 0.1698,0.48619 0.1698,0.91782 v 2.14371 c 0,0.11733 -0.0249,0.19249 -0.075,0.22601 -0.0503,0.0335 -0.16782,0.0504 -0.35221,0.0504 h -3.70861 c -0.25981,0 -0.41493,-0.0232 -0.46521,-0.0693 -0.046,-0.046 -0.0693,-0.18852 -0.0693,-0.42737 v -2.24412 c 0,-0.31009 0.0481,-0.53032 0.14454,-0.66023 0.0963,-0.13411 0.28538,-0.23628 0.56616,-0.30752 0.11316,-0.0293 0.16979,-0.0774 0.16979,-0.14456 0,-0.0879 -0.0608,-0.13246 -0.1824,-0.13246 -0.0628,0 -0.15076,0.008 -0.2639,0.0252 -0.25983,0.0335 -0.5388,0.0504 -0.83634,0.0504 -0.44002,0 -0.82328,-0.019 -1.15017,-0.0566 -0.17181,-0.0209 -0.29781,-0.0331 -0.37743,-0.0373 z m 42.44591,0 c -0.10896,-0.004 -0.16348,0.0375 -0.16348,0.12562 0,0.0753 0.0608,0.1215 0.18241,0.13827 0.35619,0.0545 0.60342,0.16352 0.74172,0.32696 0.1383,0.16344 0.20763,0.42709 0.20763,0.79167 v 5.39339 c 0,0.58668 -0.0338,0.99748 -0.10071,1.23217 -0.0669,0.23469 -0.19253,0.37286 -0.37689,0.41477 l -0.31437,0.0755 c -0.10894,0.0251 -0.16348,0.0753 -0.16348,0.15085 0,0.0794 0.0523,0.11934 0.15717,0.11934 0.0459,0 0.17793,-0.008 0.39584,-0.0252 0.15924,-0.0125 0.2916,-0.0189 0.39634,-0.0189 l 0.41478,-0.0126 0.52777,0.006 c 0.38973,0 0.64119,0.0106 0.75433,0.0314 0.15086,0.0209 0.25357,0.0315 0.30804,0.0315 0.12573,0 0.1866,-0.0439 0.18241,-0.13193 -0.004,-0.092 -0.0835,-0.14671 -0.23864,-0.16349 -0.37716,-0.0418 -0.63498,-0.15093 -0.77328,-0.32695 -0.13827,-0.17602 -0.20763,-0.482 -0.20763,-0.91782 v -2.30665 c 0,-0.19696 0.0297,-0.31873 0.0882,-0.36481 0.0586,-0.0502 0.20743,-0.0755 0.4463,-0.0755 h 3.70231 c 0.21372,0 0.33919,0.0169 0.3769,0.0504 0.0377,0.0335 0.0566,0.14893 0.0566,0.34589 v 2.30666 l -0.006,0.24547 c 0,0.64118 -0.22024,0.99956 -0.66025,1.075 -0.13829,0.0209 -0.20923,0.0691 -0.21342,0.14456 -0.004,0.0879 0.046,0.12984 0.15086,0.12564 0.0292,0 0.17386,-0.0106 0.43368,-0.0314 0.12572,-0.0126 0.2263,-0.0189 0.30175,-0.0189 l 0.47152,-0.0125 0.46521,0.006 c 0.3185,0 0.52761,0.008 0.62818,0.0252 0.13412,0.021 0.24316,0.0314 0.32697,0.0314 0.12572,0 0.18447,-0.0503 0.1761,-0.15087 -0.004,-0.0669 -0.0713,-0.1089 -0.20133,-0.12564 -0.35621,-0.0376 -0.59708,-0.14252 -0.72279,-0.31435 -0.12573,-0.17184 -0.18872,-0.48205 -0.18872,-0.93045 V 157.869 c 0,-0.20952 0.0444,-0.39428 0.13247,-0.55354 0.0879,-0.16342 0.19653,-0.25766 0.32644,-0.2828 l 0.2581,-0.0561 c 0.10041,-0.0209 0.15087,-0.0631 0.15087,-0.12616 0,-0.0794 -0.0503,-0.11934 -0.15087,-0.11934 -0.0418,0 -0.11972,0.008 -0.23287,0.0252 -0.1802,0.0251 -0.49414,0.0378 -0.94253,0.0378 -0.31013,0 -0.60393,-0.0148 -0.88049,-0.0441 -0.19697,-0.0209 -0.33937,-0.0315 -0.42738,-0.0315 -0.10041,0 -0.15299,0.036 -0.15718,0.10725 -0.004,0.0753 0.0565,0.12573 0.18241,0.15086 0.29753,0.0669 0.50082,0.19041 0.60978,0.3706 0.11315,0.18018 0.1698,0.48619 0.1698,0.91782 v 2.14371 c 0,0.11733 -0.0254,0.19249 -0.0755,0.22601 -0.0503,0.0335 -0.16728,0.0504 -0.35167,0.0504 h -3.70862 c -0.25981,0 -0.41493,-0.0232 -0.46521,-0.0693 -0.046,-0.046 -0.0693,-0.18852 -0.0693,-0.42737 v -2.24412 c 0,-0.31009 0.0481,-0.53032 0.14457,-0.66023 0.0962,-0.13411 0.28484,-0.23628 0.56561,-0.30752 0.11315,-0.0293 0.16978,-0.0774 0.16978,-0.14456 0,-0.0879 -0.0608,-0.13246 -0.18239,-0.13246 -0.0627,0 -0.15074,0.008 -0.26389,0.0252 -0.25982,0.0335 -0.53829,0.0504 -0.83582,0.0504 -0.44003,0 -0.8233,-0.019 -1.15017,-0.0566 -0.17182,-0.0209 -0.29782,-0.0331 -0.37743,-0.0373 z m -89.79581,0.0184 c -0.05446,0 -0.152945,0.0106 -0.295426,0.0314 -0.188579,0.0251 -0.473396,0.0378 -0.854743,0.0378 -0.326871,0 -0.578331,-0.006 -0.754338,-0.0189 -0.05446,-0.004 -0.09205,-0.006 -0.113019,-0.006 -0.12153,0 -0.18241,0.0439 -0.18241,0.13195 0,0.0921 0.09844,0.16155 0.295429,0.20766 0.356202,0.0753 0.534082,0.21147 0.534082,0.40844 0,0.2221 -0.238758,0.9553 -0.716491,2.19993 -0.473544,1.24041 -0.987055,2.47075 -1.540219,3.69023 -0.07963,0.16762 -0.132032,0.28248 -0.157176,0.34535 -0.08381,0.19278 -0.152637,0.28912 -0.207115,0.28912 -0.06284,0 -0.163445,-0.16516 -0.301736,-0.49623 l -1.263714,-2.97951 1.03084,-2.43282 c 0.19277,-0.45258 0.325118,-0.72893 0.396358,-0.8295 0.07544,-0.10042 0.19243,-0.17628 0.351674,-0.22657 0.146673,-0.0418 0.220258,-0.0984 0.220258,-0.16978 0,-0.10042 -0.06299,-0.15088 -0.188716,-0.15088 -0.05028,0 -0.136051,0.008 -0.25758,0.0252 -0.142481,0.0209 -0.347887,0.0315 -0.616087,0.0315 -0.247249,0 -0.46324,-0.006 -0.647628,-0.0189 -0.138292,-0.008 -0.21982,-0.0126 -0.244964,-0.0126 -0.146672,0 -0.219732,0.0417 -0.219732,0.12565 0,0.1004 0.100034,0.16991 0.301211,0.20762 0.276583,0.0503 0.415282,0.17154 0.415282,0.36432 0,0.32264 -0.238758,1.02041 -0.716493,2.09321 -0.02935,0.0628 -0.0717,0.1592 -0.126161,0.2891 l -0.666026,-1.57121 c -0.150862,-0.3562 -0.226565,-0.61404 -0.226565,-0.77326 0,-0.1844 0.100552,-0.31834 0.301736,-0.40216 0.13829,-0.0545 0.207642,-0.11534 0.207642,-0.18238 0,-0.10042 -0.07359,-0.15089 -0.220258,-0.15089 -0.04191,0 -0.131902,0.006 -0.270195,0.0189 -0.238866,0.0251 -0.446389,0.0378 -0.622394,0.0378 l -1.219036,-0.0378 -0.245488,-0.006 c -0.171816,0 -0.259696,0.0417 -0.263887,0.12563 -0.0083,0.10897 0.159435,0.18681 0.503069,0.23289 0.226294,0.0293 0.391468,0.10449 0.496233,0.22603 0.104767,0.12153 0.255645,0.40423 0.452605,0.84845 l 0.521991,1.21956 0.559314,1.30734 c 0.01673,0.0418 0.06921,0.1679 0.157179,0.37744 l -1.081311,2.52691 -0.03155,0.075 c -0.05864,0.13411 -0.102612,0.20131 -0.131947,0.20131 -0.02517,0 -0.06058,-0.046 -0.106709,-0.13822 l -0.07571,-0.13195 c -0.02517,-0.0501 -0.07122,-0.15089 -0.138252,-0.30172 l -0.615563,-1.35782 c -0.125718,-0.28496 -0.339594,-0.80062 -0.641318,-1.54653 -0.310108,-0.7669 -0.536687,-1.30953 -0.679169,-1.62801 -0.305916,-0.69984 -0.458911,-1.15249 -0.458911,-1.3578 0,-0.16764 0.132345,-0.28886 0.396355,-0.36429 0.09217,-0.0293 0.138252,-0.0838 0.138252,-0.1635 0,-0.10475 -0.05662,-0.15717 -0.169792,-0.15717 -0.04609,0 -0.1758,0.008 -0.389521,0.0252 l -0.528302,0.0125 -0.773262,-0.006 c -0.25563,0 -0.464745,-0.0106 -0.62818,-0.0315 -0.06708,-0.008 -0.11946,-0.0126 -0.157175,-0.0126 -0.125719,0 -0.188716,0.0503 -0.188716,0.15088 0,0.0836 0.04394,0.13622 0.131942,0.15716 l 0.257581,0.0566 c 0.259819,0.0586 0.473694,0.19895 0.641318,0.42105 0.171816,0.22212 0.37087,0.6181 0.597165,1.18803 l 0.163483,0.41476 2.595769,6.21081 c 0.1341,0.32266 0.25586,0.48572 0.364817,0.4899 0.07963,0.004 0.156916,-0.0835 0.232348,-0.26387 l 1.571756,-3.75277 1.559146,3.64608 c 0.08799,0.20113 0.178,0.30173 0.270194,0.30173 0.108956,0 0.218013,-0.1154 0.326969,-0.34591 l 0.09408,-0.1887 0.138253,-0.32069 0.301735,-0.68492 0.503069,-1.18802 0.754338,-1.70371 c 0.163436,-0.36879 0.400078,-0.92358 0.710181,-1.66531 0.301727,-0.70404 0.523547,-1.2112 0.66603,-1.52132 l 0.34589,-0.74802 c 0.08381,-0.18439 0.211401,-0.31038 0.383217,-0.37742 0.12153,-0.0502 0.182407,-0.11329 0.182407,-0.18874 0,-0.092 -0.04605,-0.13824 -0.138252,-0.13824 z m 1.251625,0 c -0.188578,0 -0.282809,0.0587 -0.282809,0.1761 0,0.0795 0.06086,0.11932 0.182405,0.11932 0.381349,0 0.636522,0.10483 0.766433,0.31435 0.134101,0.20535 0.201332,0.60771 0.201332,1.20694 v 5.31192 l -0.0063,0.40844 c 0,0.50289 -0.150879,0.79617 -0.452604,0.87999 l -0.238654,0.0693 c -0.108956,0.0293 -0.163485,0.0795 -0.163485,0.15083 0,0.0921 0.06726,0.13829 0.201333,0.13829 0.05864,0 0.167198,-0.0148 0.326441,-0.0441 0.301725,-0.0502 0.819476,-0.0755 1.552835,-0.0755 0.52383,0 1.186105,0.038 1.986514,0.11353 0.205342,0.0168 0.3684,0.0252 0.489929,0.0252 0.561546,0 1.026883,-0.22656 1.395658,-0.67916 0.305916,-0.37715 0.458912,-0.70169 0.458912,-0.97406 0,-0.11315 -0.03759,-0.16767 -0.113018,-0.16349 -0.04609,0.004 -0.09213,0.0417 -0.138252,0.11302 -0.469352,0.74172 -1.527616,1.11285 -3.174533,1.11285 -0.519639,0 -0.844687,-0.0444 -0.974598,-0.13248 -0.125716,-0.0878 -0.18819,-0.30983 -0.18819,-0.66602 v -2.31348 l -0.0063,-0.20711 c 0,-0.12572 0.03336,-0.2099 0.100369,-0.2518 0.07126,-0.0418 0.209417,-0.0625 0.414757,-0.0625 h 1.389351 c 0.360395,0 0.616094,0.0503 0.766957,0.15087 0.150863,0.1004 0.251448,0.29116 0.301734,0.57193 l 0.03786,0.1761 c 0.01674,0.092 0.0692,0.13825 0.157174,0.13825 0.07962,0 0.119326,-0.0523 0.119326,-0.15718 0,-0.0376 -0.0042,-0.0985 -0.0126,-0.1824 -0.02517,-0.25145 -0.03786,-0.50502 -0.03786,-0.76064 0,-0.33525 0.01691,-0.70585 0.05045,-1.11233 0.0041,-0.0628 0.0063,-0.1089 0.0063,-0.13826 0,-0.10895 -0.04023,-0.1656 -0.119856,-0.16978 -0.08381,-0.004 -0.135695,0.046 -0.156649,0.15086 -0.05446,0.27657 -0.115357,0.45234 -0.182406,0.52777 -0.06708,0.0753 -0.213692,0.13631 -0.439989,0.18242 -0.255629,0.0503 -0.603444,0.075 -1.043459,0.075 h -0.968287 c -0.180197,0 -0.28925,-0.0185 -0.326965,-0.0561 -0.03354,-0.0418 -0.04993,-0.15945 -0.04993,-0.3522 v -2.52691 c 0,-0.22211 0.03759,-0.36451 0.113019,-0.42737 0.07545,-0.0669 0.243249,-0.10021 0.50307,-0.10021 h 0.986684 c 0.64955,0 1.095831,0.0311 1.338888,0.0939 0.243054,0.0628 0.404521,0.18885 0.484145,0.37744 0.05028,0.12152 0.07519,0.24911 0.07519,0.3832 v 0.16349 c 0,0.1299 0.03971,0.19292 0.119326,0.18871 0.07126,-0.004 0.117823,-0.0359 0.138777,-0.0944 0.02093,-0.0628 0.0416,-0.21588 0.06256,-0.45893 l 0.02525,-0.3706 c 0.02092,-0.27658 0.0379,-0.4444 0.05045,-0.50306 0.01255,-0.0586 0.0184,-0.10685 0.0184,-0.14458 0,-0.12151 -0.06885,-0.1824 -0.207116,-0.1824 -0.05446,0 -0.138126,0.008 -0.251272,0.0252 -0.05446,0.008 -0.205355,0.0168 -0.452601,0.0252 l -0.892591,0.0441 c -0.393922,0.0168 -0.846553,0.0252 -1.357811,0.0252 -0.84232,0 -1.563356,-0.0338 -2.162616,-0.10071 -0.176006,-0.0209 -0.316298,-0.0315 -0.421065,-0.0315 z m 56.577545,0 c -0.18858,0 -0.2828,0.0587 -0.2828,0.1761 0,0.0795 0.0608,0.11932 0.1824,0.11932 0.38134,0 0.63704,0.10483 0.76695,0.31435 0.13411,0.20535 0.20134,0.60771 0.20134,1.20694 v 5.31192 l -0.006,0.40844 c 0,0.50289 -0.15088,0.79617 -0.45261,0.87999 l -0.23917,0.0693 c -0.10896,0.0293 -0.16349,0.0795 -0.16349,0.15083 0,0.0921 0.0671,0.13829 0.20132,0.13829 0.0586,0 0.16773,-0.0148 0.32697,-0.0441 0.30173,-0.0502 0.81897,-0.0755 1.55231,-0.0755 0.52385,0 1.18612,0.038 1.98654,0.11353 0.20533,0.0168 0.36891,0.0252 0.49043,0.0252 0.56156,0 1.02638,-0.22656 1.39515,-0.67916 0.30591,-0.37715 0.45891,-0.70169 0.45891,-0.97406 0,-0.11315 -0.0376,-0.16767 -0.11301,-0.16349 -0.046,0.004 -0.092,0.0417 -0.13827,0.11302 -0.46936,0.74172 -1.52762,1.11285 -3.17452,1.11285 -0.51965,0 -0.84416,-0.0444 -0.97407,-0.13248 -0.12572,-0.0878 -0.18872,-0.30983 -0.18872,-0.66602 v -2.31348 l -0.006,-0.20711 c 0,-0.12572 0.0333,-0.2099 0.1002,-0.2518 0.0712,-0.0418 0.20993,-0.0625 0.41527,-0.0625 h 1.38882 c 0.36041,0 0.6161,0.0503 0.76698,0.15087 0.15085,0.1004 0.25144,0.29116 0.30173,0.57193 l 0.0378,0.1761 c 0.0168,0.092 0.0691,0.13825 0.15718,0.13825 0.0794,0 0.1193,-0.0523 0.1193,-0.15718 0,-0.0376 -0.004,-0.0985 -0.0125,-0.1824 -0.0251,-0.25145 -0.0378,-0.50502 -0.0378,-0.76064 0,-0.33525 0.0168,-0.70585 0.0504,-1.11233 0.004,-0.0628 0.006,-0.1089 0.006,-0.13826 0,-0.10895 -0.0396,-0.1656 -0.11934,-0.16978 -0.0837,-0.004 -0.13624,0.046 -0.15717,0.15086 -0.0545,0.27657 -0.11538,0.45234 -0.18242,0.52777 -0.0669,0.0753 -0.2137,0.13631 -0.43999,0.18242 -0.25562,0.0503 -0.60344,0.075 -1.04346,0.075 h -0.96776 c -0.18018,0 -0.28925,-0.0185 -0.32697,-0.0561 -0.0335,-0.0418 -0.0504,-0.15945 -0.0504,-0.3522 v -2.52691 c 0,-0.22211 0.0376,-0.36451 0.11302,-0.42737 0.0753,-0.0669 0.24325,-0.10021 0.50306,-0.10021 h 0.98667 c 0.64957,0 1.09585,0.0311 1.33889,0.0939 0.24307,0.0628 0.40454,0.18885 0.48417,0.37744 0.0502,0.12152 0.0755,0.24911 0.0755,0.3832 v 0.16349 c 0,0.1299 0.0396,0.19292 0.11935,0.18871 0.071,-0.004 0.11727,-0.0359 0.13823,-0.0944 0.0209,-0.0628 0.042,-0.21588 0.063,-0.45893 l 0.0247,-0.3706 c 0.0209,-0.27658 0.0378,-0.4444 0.0504,-0.50306 0.0126,-0.0586 0.0189,-0.10685 0.0189,-0.14458 0,-0.12151 -0.0693,-0.1824 -0.20765,-0.1824 -0.0545,0 -0.13813,0.008 -0.25127,0.0252 -0.0545,0.008 -0.20537,0.0168 -0.45259,0.0252 l -0.8926,0.0441 c -0.39393,0.0168 -0.84658,0.0252 -1.35783,0.0252 -0.84231,0 -1.5628,-0.0338 -2.16209,-0.10071 -0.17599,-0.0209 -0.31682,-0.0315 -0.42159,-0.0315 z m -39.434855,0.0504 c -0.14248,0 -0.213421,0.0481 -0.213421,0.14455 0,0.0628 0.05027,0.10469 0.150868,0.12563 l 0.282811,0.0566 c 0.452587,0.092 0.678643,0.4167 0.678643,0.97405 v 5.62002 l -0.0058,0.28911 c 0,0.40231 -0.05028,0.68925 -0.150869,0.86107 -0.09637,0.16761 -0.28961,0.2952 -0.578766,0.38319 -0.113147,0.0335 -0.169266,0.0837 -0.169266,0.1509 0,0.0795 0.05187,0.11772 0.156649,0.11353 0.08799,-0.004 0.205529,-0.0169 0.352203,-0.0377 0.347823,-0.0502 0.779282,-0.0755 1.294732,-0.0755 0.444205,0 0.865607,0.0148 1.263713,0.0441 l 0.678643,0.0504 c 0.176005,0.0124 0.331119,0.0189 0.46522,0.0189 0.808789,0 1.393774,-0.2287 1.754168,-0.68549 0.255626,-0.33105 0.391683,-0.63492 0.408446,-0.9115 0.0042,-0.0837 -0.02707,-0.12565 -0.09408,-0.12565 -0.05864,0 -0.117429,0.0565 -0.176098,0.16981 -0.159243,0.30592 -0.528231,0.55315 -1.106538,0.74171 -0.574117,0.1844 -1.252801,0.27652 -2.036456,0.27652 -0.53221,0 -0.846669,-0.046 -0.943052,-0.13827 -0.09637,-0.092 -0.144561,-0.38971 -0.144561,-0.89259 l -0.0063,-0.21972 v -5.46278 c 0,-0.65794 0.188464,-1.03275 0.565621,-1.12495 l 0.220259,-0.0504 c 0.12153,-0.0293 0.182407,-0.09 0.182407,-0.18241 0,-0.0627 -0.05028,-0.0939 -0.150868,-0.0939 -0.02093,0 -0.111474,0.004 -0.270719,0.0126 -0.3143,0.0209 -0.66423,0.0314 -1.049768,0.0314 -0.356205,0 -0.676491,-0.0126 -0.961455,-0.0378 -0.167626,-0.0168 -0.299974,-0.0252 -0.396356,-0.0252 z m 56.578075,0 c -0.14248,0 -0.21394,0.0481 -0.21394,0.14455 0,0.0628 0.0503,0.10469 0.15085,0.12563 l 0.28282,0.0566 c 0.45259,0.092 0.67916,0.4167 0.67916,0.97405 v 5.62002 l -0.006,0.28911 c 0,0.40231 -0.0502,0.68925 -0.15088,0.86107 -0.0963,0.16761 -0.28908,0.2952 -0.57823,0.38319 -0.11315,0.0335 -0.1698,0.0837 -0.1698,0.1509 0,0.0795 0.0523,0.11772 0.15718,0.11353 0.0879,-0.004 0.20552,-0.0169 0.3522,-0.0377 0.34782,-0.0502 0.77929,-0.0755 1.29473,-0.0755 0.44419,0 0.86508,0.0148 1.26319,0.0441 l 0.67916,0.0504 c 0.17601,0.0124 0.33112,0.0189 0.46522,0.0189 0.8088,0 1.39325,-0.2287 1.75365,-0.68549 0.25562,-0.33105 0.39169,-0.63492 0.40844,-0.9115 0.004,-0.0837 -0.027,-0.12565 -0.0939,-0.12565 -0.0586,0 -0.11742,0.0565 -0.17608,0.16981 -0.15927,0.30592 -0.52772,0.55315 -1.10604,0.74171 -0.57411,0.1844 -1.25333,0.27652 -2.03697,0.27652 -0.5322,0 -0.84667,-0.046 -0.94304,-0.13827 -0.0963,-0.092 -0.14457,-0.38971 -0.14457,-0.89259 l -0.006,-0.21972 v -5.46278 c 0,-0.65794 0.18899,-1.03275 0.56615,-1.12495 l 0.21972,-0.0504 c 0.12154,-0.0293 0.18242,-0.09 0.18242,-0.18241 0,-0.0627 -0.0503,-0.0939 -0.15087,-0.0939 -0.0209,0 -0.11096,0.004 -0.27021,0.0126 -0.31428,0.0209 -0.66421,0.0314 -1.04976,0.0314 -0.3562,0 -0.67701,-0.0126 -0.96199,-0.0378 -0.16762,-0.0168 -0.29943,-0.0252 -0.39581,-0.0252 z m -50.253718,0.0504 c -0.142478,0 -0.236709,0.0311 -0.282808,0.0939 -0.04191,0.0586 -0.06256,0.18467 -0.06256,0.37743 0,0.19695 -0.03178,0.44631 -0.0946,0.74804 -0.05027,0.23468 -0.0752,0.39561 -0.0752,0.48362 0,0.10895 0.03759,0.1656 0.113018,0.16979 0.07544,0.004 0.132078,-0.0751 0.169794,-0.23867 0.08381,-0.37713 0.201338,-0.63284 0.352201,-0.76694 0.155054,-0.13829 0.402281,-0.20763 0.741723,-0.20763 h 1.665328 c 0.159243,0 0.259831,0.0212 0.301736,0.063 0.04609,0.0418 0.06941,0.13826 0.06941,0.28913 l 0.0063,0.16348 v 6.22919 c 0,0.35204 -0.05663,0.59716 -0.169793,0.73544 -0.113148,0.1341 -0.331255,0.22197 -0.653935,0.26388 -0.13829,0.0168 -0.207116,0.059 -0.207116,0.12615 0,0.0921 0.06299,0.13828 0.188715,0.13828 0.04191,0 0.182199,-0.0126 0.421067,-0.0378 0.121528,-0.0125 0.270286,-0.0189 0.446294,-0.0189 l 0.489927,-0.006 0.458911,0.006 c 0.297535,0 0.486526,0.006 0.566149,0.0189 0.155052,0.0251 0.257754,0.0378 0.308043,0.0378 0.117336,0 0.175576,-0.046 0.175576,-0.13828 0,-0.071 -0.07308,-0.11942 -0.219731,-0.14453 -0.52802,-0.0921 -0.802777,-0.38389 -0.82373,-0.87421 l -0.0063,-0.24496 v -6.16036 c 0,-0.19696 0.02328,-0.3203 0.06941,-0.3706 0.05028,-0.0501 0.167815,-0.0755 0.352203,-0.0755 h 1.76626 c 0.352013,0 0.588652,0.0459 0.710182,0.13823 0.121529,0.0879 0.209408,0.28124 0.263888,0.57878 0.02517,0.1341 0.07544,0.19869 0.150865,0.1945 0.09217,-0.008 0.136135,-0.0749 0.131946,-0.20081 -0.0042,-0.0628 -0.01633,-0.16555 -0.03733,-0.30807 -0.02095,-0.11312 -0.03155,-0.29367 -0.03155,-0.5409 0,-0.24724 -0.02543,-0.39601 -0.07571,-0.44628 -0.04609,-0.0502 -0.184268,-0.075 -0.414755,-0.075 z m 56.578078,0 c -0.14247,0 -0.23671,0.0311 -0.28282,0.0939 -0.0418,0.0586 -0.063,0.18467 -0.063,0.37743 0,0.19695 -0.0311,0.44631 -0.0939,0.74804 -0.0503,0.23468 -0.0755,0.39561 -0.0755,0.48362 0,0.10895 0.0376,0.1656 0.11302,0.16979 0.0753,0.004 0.1321,-0.0751 0.16978,-0.23867 0.0837,-0.37713 0.20135,-0.63284 0.35221,-0.76694 0.15506,-0.13829 0.40227,-0.20763 0.74173,-0.20763 h 1.66584 c 0.15926,0 0.25985,0.0212 0.30176,0.063 0.046,0.0418 0.0688,0.13826 0.0688,0.28913 l 0.006,0.16348 v 6.22919 c 0,0.35204 -0.0565,0.59716 -0.16978,0.73544 -0.11314,0.1341 -0.33073,0.22197 -0.6534,0.26388 -0.13832,0.0168 -0.20764,0.059 -0.20764,0.12615 0,0.0921 0.0628,0.13828 0.18869,0.13828 0.0418,0 0.18221,-0.0126 0.42107,-0.0378 0.12153,-0.0125 0.27031,-0.0189 0.4463,-0.0189 l 0.49046,-0.006 0.4589,0.006 c 0.29754,0 0.48602,0.006 0.56563,0.0189 0.15505,0.0251 0.25776,0.0378 0.30804,0.0378 0.11734,0 0.17611,-0.046 0.1761,-0.13828 0,-0.071 -0.0735,-0.11942 -0.22025,-0.14453 -0.52801,-0.0921 -0.80225,-0.38389 -0.82321,-0.87421 l -0.006,-0.24496 v -6.16036 c 0,-0.19696 0.0227,-0.3203 0.0687,-0.3706 0.0501,-0.0501 0.16781,-0.0755 0.35221,-0.0755 h 1.76625 c 0.35202,0 0.58864,0.0459 0.71018,0.13823 0.12153,0.0879 0.20994,0.28124 0.26441,0.57878 0.0251,0.1341 0.0753,0.19869 0.15088,0.1945 0.092,-0.008 0.13613,-0.0749 0.13193,-0.20081 -0.004,-0.0628 -0.0168,-0.16555 -0.0378,-0.30807 -0.0209,-0.11312 -0.0314,-0.29367 -0.0314,-0.5409 0,-0.24724 -0.0249,-0.39601 -0.075,-0.44628 -0.046,-0.0502 -0.18427,-0.075 -0.41477,-0.075 z m -68.723727,1.45823 c 0.05864,0.004 0.113197,0.0734 0.163484,0.20763 l 0.05045,0.13195 0.986685,2.48905 0.03155,0.11302 c 0.02098,0.0669 0.03155,0.11522 0.03155,0.14455 0,0.10479 -0.104815,0.15719 -0.314351,0.15719 h -1.898198 l -0.169795,-0.006 c -0.19277,0 -0.289121,-0.0545 -0.289121,-0.16348 0,-0.0376 0.02703,-0.11503 0.08149,-0.23236 l 1.225866,-2.72192 c 0.03773,-0.0836 0.07109,-0.12352 0.10038,-0.11933 z m 56.578077,0 c 0.0586,0.004 0.1132,0.0734 0.16348,0.20763 l 0.0498,0.13195 0.98723,2.48905 0.0314,0.11302 c 0.0209,0.0669 0.0309,0.11522 0.0309,0.14455 0,0.10479 -0.10481,0.15719 -0.31433,0.15719 h -1.8982 l -0.1698,-0.006 c -0.19278,0 -0.28913,-0.0545 -0.28913,-0.16348 0,-0.0376 0.0276,-0.11503 0.0818,-0.23236 l 1.22534,-2.72192 c 0.0376,-0.0836 0.0714,-0.12352 0.10071,-0.11933 z"
         id="text848"
         inkscape:connector-curvature="0" />
    </g>
  </g>
</svg>
